<?xml version="1.0" encoding="UTF-8" standalone="no"?>
<svg
   width="398.30429pt"
   height="301.66562pt"
   viewBox="0 0 398.30429 301.66562"
   version="1.2"
   id="svg446"
   sodipodi:docname="phonon_artifacts.svg"
   inkscape:version="1.1.2 (0a00cf5339, 2022-02-04)"
   xmlns:inkscape="http://www.inkscape.org/namespaces/inkscape"
   xmlns:sodipodi="http://sodipodi.sourceforge.net/DTD/sodipodi-0.dtd"
   xmlns="http://www.w3.org/2000/svg"
   xmlns:svg="http://www.w3.org/2000/svg">
  <sodipodi:namedview
     id="namedview448"
     pagecolor="#282a36"
     bordercolor="#666666"
     borderopacity="1.0"
     inkscape:pageshadow="2"
     inkscape:pageopacity="0"
     inkscape:pagecheckerboard="0"
     inkscape:document-units="pt"
     showgrid="false"
     inkscape:zoom="0.9899513"
     inkscape:cx="200.00984"
     inkscape:cy="197.98954"
     inkscape:window-width="1850"
     inkscape:window-height="1051"
     inkscape:window-x="1920"
     inkscape:window-y="578"
     inkscape:window-maximized="1"
     inkscape:current-layer="svg446"
     fit-margin-top="0"
     fit-margin-left="0"
     fit-margin-right="0"
     fit-margin-bottom="0" />
  <defs
     id="defs79">
    <clipPath
       id="clip1">
      <path
         d="M 51.324219,0.398438 H 394 V 18 H 51.324219 Z m 0,0"
         id="path2" />
    </clipPath>
    <clipPath
       id="clip2">
      <path
         d="M 51.324219,97 H 408.44531 v 54 H 51.324219 Z m 0,0"
         id="path5" />
    </clipPath>
    <clipPath
       id="clip3">
      <path
         d="M 51.324219,72 H 408.44531 V 230 H 51.324219 Z m 0,0"
         id="path8" />
    </clipPath>
    <clipPath
       id="clip4">
      <path
         d="M 51.324219,0.398438 H 395 V 230 H 51.324219 Z m 0,0"
         id="path11" />
    </clipPath>
    <clipPath
       id="clip5">
      <path
         d="M 51.324219,0.398438 H 257 V 230 H 51.324219 Z m 0,0"
         id="path14" />
    </clipPath>
    <clipPath
       id="clip6">
      <path
         d="M 51.324219,72 H 408.44531 V 230 H 51.324219 Z m 0,0"
         id="path17" />
    </clipPath>
    <clipPath
       id="clip7">
      <path
         d="M 51.324219,97 H 408.44531 v 54 H 51.324219 Z m 0,0"
         id="path20" />
    </clipPath>
    <clipPath
       id="clip8">
      <path
         d="M 51.324219,0.398438 H 394 V 18 H 51.324219 Z m 0,0"
         id="path23" />
    </clipPath>
    <clipPath
       id="clip9">
      <path
         d="m 407,273 h 4.96484 v 9 H 407 Z m 0,0"
         id="path26" />
    </clipPath>
    <clipPath
       id="clip10">
      <path
         d="m 215,289 h 6 v 7.83984 h -6 z m 0,0"
         id="path29" />
    </clipPath>
    <clipPath
       id="clip11">
      <path
         d="m 225,287 h 3 v 9.83984 h -3 z m 0,0"
         id="path32" />
    </clipPath>
    <clipPath
       id="clip12">
      <path
         d="m 241,287 h 3 v 9.83984 h -3 z m 0,0"
         id="path35" />
    </clipPath>
    <clipPath
       id="clip13">
      <path
         d="M 51.324219,104 H 408.44531 V 266 H 51.324219 Z m 0,0"
         id="path38" />
    </clipPath>
    <clipPath
       id="clip14">
      <path
         d="M 51.324219,101 H 408.44531 V 265 H 51.324219 Z m 0,0"
         id="path41" />
    </clipPath>
    <clipPath
       id="clip15">
      <path
         d="M 51.324219,81 H 408.44531 V 256 H 51.324219 Z m 0,0"
         id="path44" />
    </clipPath>
    <clipPath
       id="clip16">
      <path
         d="M 51.324219,80 H 408.44531 V 212 H 51.324219 Z m 0,0"
         id="path47" />
    </clipPath>
    <clipPath
       id="clip17">
      <path
         d="M 51.324219,0.398438 H 403 V 152 H 51.324219 Z m 0,0"
         id="path50" />
    </clipPath>
    <clipPath
       id="clip18">
      <path
         d="M 51.324219,0.398438 H 395 V 146 H 51.324219 Z m 0,0"
         id="path53" />
    </clipPath>
    <clipPath
       id="clip19">
      <path
         d="M 51.324219,0.398438 H 383 V 20 H 51.324219 Z m 0,0"
         id="path56" />
    </clipPath>
    <clipPath
       id="clip20">
      <path
         d="M 51.324219,0.398438 H 247 V 15 H 51.324219 Z m 0,0"
         id="path59" />
    </clipPath>
    <clipPath
       id="clip21">
      <path
         d="M 0,0 H 411.96484 V 296.83984 H 0 Z m 0,0"
         id="path62" />
    </clipPath>
    <filter
       id="alpha"
       filterUnits="objectBoundingBox"
       x="0"
       y="0"
       width="1"
       height="1">
      <feColorMatrix
         type="matrix"
         in="SourceGraphic"
         values="0 0 0 0 1 0 0 0 0 1 0 0 0 0 1 0 0 0 1 0"
         id="feColorMatrix65" />
    </filter>
    <mask
       id="mask0">
      <g
         filter="url(#alpha)"
         id="g70">
        <rect
           x="0"
           y="0"
           width="411.96564"
           height="296.83856"
           style="fill:#000000;fill-opacity:0.8;stroke:none"
           id="rect68" />
      </g>
    </mask>
    <clipPath
       id="clip22">
      <rect
         x="0"
         y="0"
         width="412"
         height="297"
         id="rect73" />
    </clipPath>
    <g
       id="surface2870"
       clip-path="url(#clip22)">
      <path
         style="fill:#ffffff;fill-opacity:1;fill-rule:nonzero;stroke:#cacaca;stroke-width:1;stroke-linecap:butt;stroke-linejoin:miter;stroke-miterlimit:4;stroke-opacity:1"
         d="m 334.24609,261.51172 h 67.19922 c 1.33203,0 2,-0.66797 2,-2 v -59.39844 c 0,-1.33594 -0.66797,-2 -2,-2 h -67.19922 c -1.33593,0 -2,0.66406 -2,2 v 59.39844 c 0,1.33203 0.66407,2 2,2 z m 0,0"
         id="path76" />
    </g>
  </defs>
  <g
     clip-path="url(#clip1)"
     clip-rule="nonzero"
     id="g83"
     transform="translate(-10.541016,0.00156201)">
    <path
       style="fill:none;stroke:#d42626;stroke-width:2;stroke-linecap:square;stroke-linejoin:round;stroke-miterlimit:4;stroke-opacity:1"
       d="m 51.324219,15.847656 19.375,-0.05859 19.375,-0.167968 19.375001,-0.292969 19.375,-0.417969 19.375,-0.554687 19.375,-0.707031 19.375,-0.875 19.375,-1.054688 19.375,-1.261719 19.375,-1.476562 19.375,-1.71875 19.375,-1.972657 19.375,-2.246093 19.375,-2.539063 19.375,-2.835937 19.375,-3.15625 19.375,-3.476563 11.88281,-2.335937"
       id="path81" />
  </g>
  <g
     clip-path="url(#clip2)"
     clip-rule="nonzero"
     id="g87"
     transform="translate(-10.541016,0.00156201)">
    <path
       style="fill:none;stroke:#2b9e2b;stroke-width:2;stroke-linecap:square;stroke-linejoin:round;stroke-miterlimit:4;stroke-opacity:1"
       d="m 51.324219,146.85547 19.375,0.0898 19.375,0.26172 77.500001,1.55469 19.375,0.0234 19.375,-0.36329 19.375,-0.88671 19.375,-1.51563 19.375,-2.23047 19.375,-3.00781 19.375,-3.80078 19.375,-4.59375 19.375,-5.34766 19.375,-6.05078 19.375,-6.6914 19.375,-7.26954 20.96484,-8.453121"
       id="path85" />
  </g>
  <g
     clip-path="url(#clip3)"
     clip-rule="nonzero"
     id="g91"
     transform="translate(-10.541016,0.00156201)">
    <path
       style="fill:none;stroke:#ff7d0c;stroke-width:2;stroke-linecap:square;stroke-linejoin:round;stroke-miterlimit:4;stroke-opacity:1"
       d="m 51.324219,228.28516 19.375,-0.44532 19.375,-1.33203 19.375001,-2.22265 19.375,-3.11329 19.375,-4 19.375,-4.89062 19.375,-5.77734 19.375,-6.66797 19.375,-7.5586 19.375,-8.44531 19.375,-9.33594 19.375,-10.22265 19.375,-11.11328 19.375,-12 19.375,-12.89454 19.375,-13.77734 19.375,-13.39844 19.375,-13.24609 20.96484,-14.164062"
       id="path89" />
  </g>
  <g
     clip-path="url(#clip4)"
     clip-rule="nonzero"
     id="g95"
     style="stroke:#57c7ff"
     transform="translate(-10.541016,0.00156201)">
    <path
       style="fill:none;stroke:#57c7ff;stroke-width:2;stroke-linecap:square;stroke-linejoin:round;stroke-miterlimit:4;stroke-opacity:1"
       d="M 51.324219,228.28516 361.32422,13.28125 393.35156,-11.300781"
       id="path93" />
  </g>
  <g
     clip-path="url(#clip5)"
     clip-rule="nonzero"
     id="g99"
     style="stroke:#57c7ff"
     transform="translate(-10.541016,0.00156201)">
    <path
       style="fill:none;stroke:#57c7ff;stroke-width:2;stroke-linecap:square;stroke-linejoin:round;stroke-miterlimit:4;stroke-opacity:1"
       d="M 51.324219,228.28516 255.58203,-11.300781"
       id="path97" />
  </g>
  <g
     clip-path="url(#clip6)"
     clip-rule="nonzero"
     id="g103"
     style="stroke:#ff9f43"
     transform="translate(-10.541016,0.00156201)">
    <path
       style="fill:none;stroke:#ff9f43;stroke-width:2;stroke-linecap:square;stroke-linejoin:round;stroke-miterlimit:4;stroke-opacity:1"
       d="m 51.324219,228.28516 19.375,-0.44532 19.375,-1.33203 19.375001,-2.22265 19.375,-3.11329 19.375,-4 19.375,-4.89062 19.375,-5.77734 19.375,-6.66797 19.375,-7.5586 19.375,-8.44531 19.375,-9.33594 19.375,-10.22265 19.375,-11.11328 19.375,-12 19.375,-12.89454 19.375,-13.77734 19.375,-13.39844 19.375,-13.24609 20.96484,-14.164062"
       id="path101" />
  </g>
  <g
     clip-path="url(#clip7)"
     clip-rule="nonzero"
     id="g107"
     style="stroke:#5af78e"
     transform="translate(-10.541016,0.00156201)">
    <path
       style="fill:none;stroke:#5af78e;stroke-width:2;stroke-linecap:square;stroke-linejoin:round;stroke-miterlimit:4;stroke-opacity:1"
       d="m 51.324219,146.85547 19.375,0.0898 19.375,0.26172 77.500001,1.55469 19.375,0.0234 19.375,-0.36329 19.375,-0.88671 19.375,-1.51563 19.375,-2.23047 19.375,-3.00781 19.375,-3.80078 19.375,-4.59375 19.375,-5.34766 19.375,-6.05078 19.375,-6.6914 19.375,-7.26954 20.96484,-8.453121"
       id="path105" />
  </g>
  <g
     clip-path="url(#clip8)"
     clip-rule="nonzero"
     id="g111"
     style="stroke:#ff5c57"
     transform="translate(-10.541016,0.00156201)">
    <path
       style="fill:none;stroke:#ff5c57;stroke-width:2;stroke-linecap:square;stroke-linejoin:round;stroke-miterlimit:4;stroke-opacity:1"
       d="m 51.324219,15.847656 19.375,-0.05859 19.375,-0.167968 19.375001,-0.292969 19.375,-0.417969 19.375,-0.554687 19.375,-0.707031 19.375,-0.875 19.375,-1.054688 19.375,-1.261719 19.375,-1.476562 19.375,-1.71875 19.375,-1.972657 19.375,-2.246093 19.375,-2.539063 19.375,-2.835937 19.375,-3.15625 19.375,-3.476563 11.88281,-2.335937"
       id="path109" />
  </g>
  <path
     style="fill:none;stroke:#ffffff;stroke-width:0.8;stroke-linecap:butt;stroke-linejoin:round;stroke-miterlimit:4;stroke-opacity:1"
     d="m 40.783203,266.51328 v 3.5"
     id="path113" />
  <path
     style="fill:none;stroke:#ffffff;stroke-width:0.8;stroke-linecap:butt;stroke-linejoin:round;stroke-miterlimit:4;stroke-opacity:1"
     d="m 90.384764,266.51328 v 3.5"
     id="path125" />
  <path
     style="fill:none;stroke:#ffffff;stroke-width:0.8;stroke-linecap:butt;stroke-linejoin:round;stroke-miterlimit:4;stroke-opacity:1"
     d="m 139.98242,266.51328 v 3.5"
     id="path137" />
  <path
     style="fill:none;stroke:#ffffff;stroke-width:0.8;stroke-linecap:butt;stroke-linejoin:round;stroke-miterlimit:4;stroke-opacity:1"
     d="m 189.58398,266.51328 v 3.5"
     id="path149" />
  <path
     style="fill:none;stroke:#ffffff;stroke-width:0.8;stroke-linecap:butt;stroke-linejoin:round;stroke-miterlimit:4;stroke-opacity:1"
     d="m 239.18554,266.51328 v 3.5"
     id="path161" />
  <path
     style="fill:none;stroke:#ffffff;stroke-width:0.8;stroke-linecap:butt;stroke-linejoin:round;stroke-miterlimit:4;stroke-opacity:1"
     d="m 288.7832,266.51328 v 3.5"
     id="path173" />
  <path
     style="fill:none;stroke:#ffffff;stroke-width:0.8;stroke-linecap:butt;stroke-linejoin:round;stroke-miterlimit:4;stroke-opacity:1"
     d="m 338.38476,266.51328 v 3.5"
     id="path185" />
  <path
     style="fill:none;stroke:#ffffff;stroke-width:0.8;stroke-linecap:butt;stroke-linejoin:round;stroke-miterlimit:4;stroke-opacity:1"
     d="m 387.98242,266.51328 v 3.5"
     id="path197" />
  <g
     id="g3006"
     transform="matrix(2,0,0,2,-240.17774,-292.01406)"
     style="stroke-width:0.5">
    <g
       clip-path="url(#clip10)"
       clip-rule="nonzero"
       id="g213"
       style="stroke-width:0.25">
      <path
         style="fill:#ffffff;fill-opacity:1;fill-rule:nonzero;stroke:none;stroke-width:0.5"
         d="m 219.05469,293.95703 c -0.23828,0.31641 -0.52344,0.55469 -0.85157,0.71875 -0.32812,0.16406 -0.6914,0.24219 -1.08593,0.24219 -0.55469,0 -0.98828,-0.1836 -1.30078,-0.5586 -0.31641,-0.37109 -0.47266,-0.88671 -0.47266,-1.53906 0,-0.52734 0.0977,-1.03515 0.29297,-1.52734 0.1914,-0.49219 0.46875,-0.9336 0.83203,-1.32422 0.23437,-0.25391 0.50391,-0.44922 0.80859,-0.58594 0.30078,-0.13672 0.6211,-0.20703 0.95703,-0.20703 0.40235,0 0.73438,0.082 0.9961,0.24219 0.26172,0.15625 0.44922,0.39844 0.5664,0.71875 l 0.15625,-0.82031 h 0.90235 l -1.45703,7.52343 h -0.90625 z m -2.77735,-1.26953 c 0,0.48047 0.10157,0.84766 0.30078,1.10156 0.20313,0.25 0.4961,0.37891 0.875,0.37891 0.56641,0 1.05079,-0.27344 1.44922,-0.8125 0.40235,-0.54297 0.60157,-1.20313 0.60157,-1.97656 0,-0.46875 -0.10547,-0.82813 -0.3125,-1.07813 -0.20313,-0.24609 -0.5,-0.37109 -0.88672,-0.37109 -0.28516,0 -0.54688,0.0664 -0.78907,0.19922 -0.23828,0.1289 -0.44921,0.32421 -0.6289,0.57812 -0.1875,0.26563 -0.33594,0.57813 -0.44531,0.9375 -0.10938,0.35547 -0.16407,0.70313 -0.16407,1.04297 z m 0,0"
         id="path211" />
    </g>
    <path
       style="fill:#ffffff;fill-opacity:1;fill-rule:nonzero;stroke:none;stroke-width:0.5"
       d="m 223.77344,287.48828 h 0.82812 l -2.53906,8.21875 h -0.82813 z m 0,0"
       id="path215" />
    <g
       clip-path="url(#clip11)"
       clip-rule="nonzero"
       id="g219"
       style="stroke-width:0.25">
      <path
         style="fill:#ffffff;fill-opacity:1;fill-rule:nonzero;stroke:none;stroke-width:0.5"
         d="m 227.70312,287.19141 c -0.4375,0.74609 -0.76171,1.48828 -0.97265,2.21875 -0.21094,0.73437 -0.31641,1.47656 -0.31641,2.22656 0,0.7539 0.10547,1.49609 0.32031,2.23437 0.21094,0.73828 0.53516,1.48047 0.96875,2.22657 h -0.78125 c -0.48828,-0.76563 -0.85546,-1.51954 -1.09765,-2.25782 -0.24219,-0.73828 -0.36328,-1.47265 -0.36328,-2.20312 0,-0.72266 0.12109,-1.45313 0.35937,-2.19141 0.24219,-0.73437 0.60938,-1.48828 1.10156,-2.2539 z m 0,0"
         id="path217" />
    </g>
    <path
       style="fill:#ffffff;fill-opacity:1;fill-rule:nonzero;stroke:none;stroke-width:0.5"
       d="m 230.42187,293.94922 h 3.44141 v 0.82812 h -4.62891 v -0.82812 c 0.375,-0.39063 0.88672,-0.91016 1.53125,-1.5625 0.64844,-0.65235 1.05469,-1.07422 1.21875,-1.26172 0.31641,-0.35547 0.53516,-0.65625 0.66016,-0.90234 0.125,-0.24219 0.19141,-0.48438 0.19141,-0.72266 0,-0.38672 -0.13672,-0.70313 -0.41016,-0.94922 -0.26953,-0.24219 -0.625,-0.36719 -1.0625,-0.36719 -0.30859,0 -0.63672,0.0547 -0.98047,0.16407 -0.33984,0.10546 -0.70703,0.26953 -1.09765,0.48828 v -0.9961 c 0.39453,-0.16015 0.76562,-0.28125 1.11328,-0.36328 0.34375,-0.082 0.66015,-0.12109 0.94531,-0.12109 0.75781,0 1.35937,0.1875 1.80859,0.5664 0.44922,0.37891 0.67188,0.88282 0.67188,1.51172 0,0.30078 -0.0547,0.58594 -0.16797,0.85547 -0.11328,0.26563 -0.31641,0.58203 -0.61328,0.94922 -0.082,0.0937 -0.33985,0.36719 -0.77735,0.81641 -0.43359,0.45312 -1.05078,1.08203 -1.84375,1.89453 z m 0,0"
       id="path221" />
    <path
       style="fill:#ffffff;fill-opacity:1;fill-rule:nonzero;stroke:none;stroke-width:0.5"
       d="m 235.77734,289.30859 h 5.24219 l -0.17578,0.89844 h -0.69141 L 239.5,293.56641 c -0.0469,0.23437 -0.0391,0.40234 0.0234,0.50781 0.0586,0.10156 0.17968,0.15234 0.35547,0.15234 0.0508,0 0.10937,-0.004 0.18359,-0.0156 0.0742,-0.008 0.12109,-0.0117 0.14453,-0.0156 l -0.125,0.65235 c -0.12109,0.0391 -0.24609,0.0703 -0.36719,0.0898 -0.1289,0.0195 -0.25,0.0312 -0.37109,0.0312 -0.39063,0 -0.64063,-0.10547 -0.74609,-0.31641 -0.10938,-0.21875 -0.10938,-0.60937 0.004,-1.18359 l 0.63281,-3.26172 h -2.01562 l -0.88672,4.57031 h -0.91797 l 0.88672,-4.57031 h -0.69922 z m 0,0"
       id="path223" />
    <g
       clip-path="url(#clip12)"
       clip-rule="nonzero"
       id="g227"
       style="stroke-width:0.25">
      <path
         style="fill:#ffffff;fill-opacity:1;fill-rule:nonzero;stroke:none;stroke-width:0.5"
         d="m 241.6875,287.19141 h 0.78125 c 0.48828,0.76562 0.85156,1.51953 1.09375,2.2539 0.24609,0.73828 0.36719,1.46875 0.36719,2.19141 0,0.73047 -0.1211,1.46484 -0.36719,2.20312 -0.24219,0.73828 -0.60547,1.49219 -1.09375,2.25782 h -0.78125 c 0.43359,-0.7461 0.75391,-1.48829 0.96875,-2.22657 0.21484,-0.73828 0.32031,-1.48047 0.32031,-2.23437 0,-0.75 -0.10547,-1.49219 -0.32031,-2.22656 -0.21484,-0.73047 -0.53516,-1.47266 -0.96875,-2.21875 z m 0,0"
         id="path225" />
    </g>
  </g>
  <path
     style="fill:none;stroke:#ffffff;stroke-width:0.8;stroke-linecap:butt;stroke-linejoin:round;stroke-miterlimit:4;stroke-opacity:1"
     d="m 40.783203,265.04453 h -3.5"
     id="path229" />
  <path
     style="fill:none;stroke:#ffffff;stroke-width:0.8;stroke-linecap:butt;stroke-linejoin:round;stroke-miterlimit:4;stroke-opacity:1"
     d="m 40.783203,228.28672 h -3.5"
     id="path241" />
  <path
     style="fill:none;stroke:#ffffff;stroke-width:0.8;stroke-linecap:butt;stroke-linejoin:round;stroke-miterlimit:4;stroke-opacity:1"
     d="m 40.783203,191.53281 h -3.5"
     id="path251" />
  <path
     style="fill:none;stroke:#ffffff;stroke-width:0.8;stroke-linecap:butt;stroke-linejoin:round;stroke-miterlimit:4;stroke-opacity:1"
     d="m 40.783203,154.775 h -3.5"
     id="path261" />
  <path
     style="fill:none;stroke:#ffffff;stroke-width:0.8;stroke-linecap:butt;stroke-linejoin:round;stroke-miterlimit:4;stroke-opacity:1"
     d="m 40.783203,118.02109 h -3.5"
     id="path271" />
  <path
     style="fill:none;stroke:#ffffff;stroke-width:0.8;stroke-linecap:butt;stroke-linejoin:round;stroke-miterlimit:4;stroke-opacity:1"
     d="m 40.783203,81.263281 h -3.5"
     id="path281" />
  <path
     style="fill:none;stroke:#ffffff;stroke-width:0.8;stroke-linecap:butt;stroke-linejoin:round;stroke-miterlimit:4;stroke-opacity:1"
     d="m 40.783203,44.509374 h -3.5"
     id="path291" />
  <path
     style="fill:none;stroke:#ffffff;stroke-width:0.8;stroke-linecap:butt;stroke-linejoin:round;stroke-miterlimit:4;stroke-opacity:1"
     d="m 40.783203,7.751562 h -3.5"
     id="path301" />
  <g
     id="g2995"
     transform="matrix(2,0,0,2,0,-148.71524)"
     style="stroke-width:0.5">
    <path
       style="fill:#ffffff;fill-opacity:1;fill-rule:nonzero;stroke:none;stroke-width:0.5"
       d="m 4.648438,164.63281 c -0.078126,0.35156 -0.222657,0.60547 -0.433594,0.75781 -0.148438,0.11329 -0.324219,0.17188 -0.527344,0.17188 -0.554688,0 -0.992188,-0.26563 -1.3125,-0.79297 -0.253906,-0.41797 -0.382812,-0.94531 -0.382812,-1.58203 0,-0.24609 0.019531,-0.50391 0.058593,-0.77344 0.039063,-0.27344 0.097657,-0.55859 0.175781,-0.85937 l 0.816407,0.15625 c -0.09375,0.29687 -0.164063,0.57031 -0.207031,0.82422 -0.042969,0.25781 -0.0625,0.5 -0.0625,0.73046 0,0.38672 0.074218,0.70704 0.226562,0.96094 0.175781,0.3086 0.398438,0.46094 0.65625,0.46094 0.175781,0 0.320312,-0.0781 0.441406,-0.23828 0.144532,-0.19141 0.214844,-0.47266 0.214844,-0.85156 v -0.75391 l 0.742188,0.14062 v 0.72266 c 0,0.44922 0.082031,0.80469 0.25,1.06641 0.222656,0.35937 0.511718,0.53906 0.863281,0.53906 0.222656,0 0.40625,-0.0977 0.550781,-0.28906 0.183594,-0.24219 0.273438,-0.60547 0.273438,-1.09766 0,-0.30469 -0.027344,-0.59766 -0.085938,-0.88672 -0.0625,-0.29297 -0.152344,-0.5625 -0.273438,-0.8164 l 0.835938,0.16406 c 0.089844,0.30859 0.15625,0.60547 0.203125,0.89062 0.046875,0.28125 0.070313,0.55469 0.070313,0.81641 0,0.77344 -0.148438,1.33984 -0.445313,1.70703 -0.230469,0.27734 -0.535156,0.41406 -0.917969,0.41406 -0.519531,0 -0.9375,-0.18359 -1.253906,-0.54687 -0.238281,-0.26953 -0.398438,-0.61328 -0.476562,-1.03516 z m 0,0"
       id="path311" />
    <path
       style="fill:#ffffff;fill-opacity:1;fill-rule:nonzero;stroke:none;stroke-width:0.5"
       d="m 3.058594,158.19141 v -6.25782 h 0.820312 v 6.25782 z m 1.992187,0 v -6.25782 h 0.828125 v 6.25782 z m 0,0"
       id="path313" />
    <path
       style="fill:#ffffff;fill-opacity:1;fill-rule:nonzero;stroke:none;stroke-width:0.5"
       d="m 4.296875,143.24609 3.300781,0.64063 v 0.89844 l -3.269531,-0.63672 c -0.207031,-0.0391 -0.390625,-0.0586 -0.558594,-0.0586 -0.246093,0 -0.449219,0.0469 -0.605469,0.13672 -0.257812,0.15235 -0.382812,0.42578 -0.382812,0.83203 0,0.48438 0.152344,0.89844 0.460938,1.23828 0.308593,0.33985 0.730468,0.5625 1.265624,0.66407 l 3.089844,0.60156 v 0.90234 l -6.199218,-1.20703 v 0.61328 l -0.800782,-0.15625 v -0.61328 L 0,146.99219 v -0.90625 l 0.597656,0.11328 v -1.71875 l 0.800782,0.15625 v 1.71875 l 1.582031,0.30859 C 2.652344,146.38672 2.40625,146.08594 2.242188,145.76172 2.078125,145.44141 2,145.08984 2,144.70703 c 0,-0.625 0.191406,-1.0625 0.578125,-1.30859 0.246094,-0.15625 0.5625,-0.23438 0.949219,-0.23438 0.234375,0 0.492187,0.0273 0.769531,0.082 z m 0,0"
       id="path315" />
    <path
       style="fill:#ffffff;fill-opacity:1;fill-rule:nonzero;stroke:none;stroke-width:0.5"
       d="m 7.742188,139.83984 c 0,1.34766 -0.96875,1.83594 -2.902344,1.46094 -0.765625,-0.14844 -1.667969,-0.57812 -2.710938,-1.28516 v -0.96875 c 1.042969,0.67188 1.953125,1.08204 2.734375,1.23047 1.410157,0.28125 2.113281,0.0547 2.113281,-0.67187 0,-0.67578 -0.875,-1.17578 -2.625,-1.5 v -0.82813 c 1.761719,0.35157 2.636719,0.19141 2.625,-0.48047 -0.00391,-0.72656 -0.710937,-1.22656 -2.113281,-1.5 -0.78125,-0.14843 -1.691406,-0.0937 -2.734375,0.16797 v -0.96875 c 1.042969,-0.30078 1.945313,-0.375 2.710938,-0.22656 1.9375,0.36719 2.902344,1.23047 2.902344,2.58594 -0.00391,0.88672 -0.492188,1.28906 -1.460938,1.21094 0.972656,0.32031 1.460938,0.91406 1.460938,1.77343 z m 0,0"
       id="path317" />
    <path
       style="fill:#ffffff;fill-opacity:1;fill-rule:nonzero;stroke:none;stroke-width:0.5"
       d="m 0.0117188,127.79688 c 0.7460932,0.43749 1.4882812,0.75781 2.2226562,0.97265 0.730469,0.21094 1.472656,0.31641 2.226563,0.31641 0.75,0 1.492187,-0.10547 2.230468,-0.32032 0.738282,-0.21484 1.480469,-0.53515 2.226563,-0.96874 v 0.78124 c -0.765625,0.48829 -1.519531,0.85157 -2.257813,1.09375 -0.738281,0.2461 -1.472656,0.36719 -2.199218,0.36719 -0.726563,0 -1.457032,-0.12109 -2.195313,-0.36328 -0.734375,-0.24219 -1.488281,-0.60547 -2.2539062,-1.09766 z m 0,0"
       id="path319" />
    <path
       style="fill:#ffffff;fill-opacity:1;fill-rule:nonzero;stroke:none;stroke-width:0.5"
       d="M 3.179688,121.79688 C 2.777344,121.57031 2.476562,121.30078 2.285156,120.98828 2.09375,120.67578 2,120.30859 2,119.88672 c 0,-0.57031 0.199219,-1.00781 0.597656,-1.32031 0.398438,-0.3086 0.964844,-0.46094 1.699219,-0.46094 h 3.300781 v 0.90234 H 4.328125 c -0.527344,0 -0.914063,0.0937 -1.167969,0.27735 -0.253906,0.1875 -0.378906,0.46875 -0.378906,0.85156 0,0.46484 0.152344,0.83203 0.460938,1.10156 0.308593,0.26953 0.730468,0.40625 1.265624,0.40625 h 3.089844 v 0.90235 H 4.328125 c -0.527344,0 -0.917969,0.0937 -1.171875,0.27734 -0.25,0.1875 -0.375,0.47266 -0.375,0.85937 0,0.46094 0.152344,0.82422 0.464844,1.09766 0.308594,0.26953 0.730468,0.40234 1.261718,0.40234 h 3.089844 v 0.90625 h -5.46875 v -0.90625 H 2.980469 C 2.644531,124.98047 2.398438,124.73438 2.238281,124.44922 2.078125,124.16016 2,123.82031 2,123.42578 c 0,-0.39844 0.097656,-0.73437 0.300781,-1.01172 0.203125,-0.27734 0.496094,-0.48437 0.878907,-0.61718 z m 0,0"
       id="path321" />
    <path
       style="fill:#ffffff;fill-opacity:1;fill-rule:nonzero;stroke:none;stroke-width:0.5"
       d="m 4.640625,111.63281 h 0.4375 v 4.13282 c 0.617187,-0.0391 1.089844,-0.22657 1.414063,-0.5586 0.324218,-0.33594 0.484374,-0.79687 0.484374,-1.39453 0,-0.34375 -0.039062,-0.67969 -0.125,-1.00391 -0.085937,-0.32421 -0.210937,-0.64453 -0.382812,-0.96484 h 0.851562 c 0.136719,0.32422 0.242188,0.65234 0.3125,0.99219 0.070313,0.33984 0.109376,0.68359 0.109376,1.03125 0,0.87109 -0.253907,1.5625 -0.761719,2.07031 -0.507813,0.51172 -1.195313,0.76563 -2.0625,0.76563 -0.894531,0 -1.605469,-0.24219 -2.128907,-0.72657 C 2.261719,115.49609 2,114.84375 2,114.02344 c 0,-0.73828 0.234375,-1.32031 0.710938,-1.7461 0.472656,-0.42968 1.113281,-0.64453 1.929687,-0.64453 z M 4.375,112.53125 c -0.492188,0.008 -0.882812,0.14453 -1.175781,0.41406 -0.292969,0.26953 -0.441407,0.625 -0.441407,1.06641 0,0.5 0.144532,0.90234 0.425782,1.20312 0.285156,0.30079 0.683594,0.47657 1.199218,0.51954 z m 0,0"
       id="path323" />
    <path
       style="fill:#ffffff;fill-opacity:1;fill-rule:nonzero;stroke:none;stroke-width:0.5"
       d="m 7.597656,108.24219 -7.289062,2.78125 v -1.02735 l 6.136718,-2.3125 -6.136718,-2.3125 v -1.02734 l 7.289062,2.77734 z m 0,0"
       id="path325" />
    <path
       style="fill:#ffffff;fill-opacity:1;fill-rule:nonzero;stroke:none;stroke-width:0.5"
       d="m 0.0117188,103.46094 v -0.78125 c 0.7656252,-0.48828 1.5195312,-0.85547 2.2539062,-1.09766 0.738281,-0.24219 1.46875,-0.36328 2.195313,-0.36328 0.726562,0 1.460937,0.12109 2.199218,0.36328 0.738282,0.24219 1.492188,0.60938 2.257813,1.09766 v 0.78125 c -0.746094,-0.4336 -1.488281,-0.75781 -2.226563,-0.96875 -0.738281,-0.21485 -1.480468,-0.32031 -2.230468,-0.32031 -0.753907,0 -1.496094,0.10546 -2.226563,0.32031 -0.734375,0.21094 -1.476563,0.53515 -2.2226562,0.96875 z m 0,0"
       id="path327" />
  </g>
  <g
     clip-path="url(#clip13)"
     clip-rule="nonzero"
     id="g331"
     style="stroke:#a5a5a9"
     transform="translate(-10.541016,0.00156201)">
    <path
       style="fill:none;stroke:#a5a5a9;stroke-width:1.5;stroke-linecap:square;stroke-linejoin:round;stroke-miterlimit:4;stroke-opacity:1"
       d="m 51.324219,228.38672 2.480469,8.51953 2.480468,5.85156 2.480469,4.21875 2.480469,3.28516 2.480468,2.66797 2.476563,2.21875 2.480469,1.86718 2.480468,1.57813 2.480469,1.33203 2.480469,1.11719 2.480469,0.92187 2.480469,0.74219 2.480468,0.57813 2.480469,0.42578 2.476563,0.27343 2.480468,0.13282 2.480469,-0.0117 2.480469,-0.14844 2.480468,-0.28906 2.480468,-0.4336 2.48047,-0.58203 2.48047,-0.73047 2.48047,-0.89453 2.47656,-1.07031 2.48047,-1.26172 4.96094,-3.01562 7.4375,2.16406 7.4414,1.91016 7.44141,1.63281 7.4375,1.33203 7.4414,1.01172 4.96094,0.48437 4.95703,0.32422 4.96094,0.15235 4.96094,-0.0312 4.96094,-0.21875 4.96093,-0.4336 4.96094,-0.66015 4.95703,-0.90625 4.96094,-1.19532 4.96094,-1.51562 4.95703,-1.89844 2.48437,-1.11719 2.47657,-1.2539 2.48046,-1.40625 2.48047,-1.58594 2.48047,-1.80859 2.47656,-2.08985 2.48438,-2.47265 2.47656,-3.04297 2.48047,-4.10157 2.48438,-8.59375 2.47656,-12.57812 2.48047,-4.66797 2.48047,-3.67578 2.48046,-3.19141 2.47657,-2.88672 4.96093,-5.22265 4.96485,-4.75 4.95703,-4.45703 7.4375,-6.32032 7.44141,-6.03515 9.92187,-7.7461 12.39844,-9.375 14.8789,-10.96093 19.84375,-14.29297 4.96094,-3.53125 2.47656,-1.21485 12.40235,-3.90624 12.39844,-4.17579 12.39843,-4.42578 12.40235,-4.66015 12.39843,-4.87891 4.96094,-2.00781"
       id="path329" />
  </g>
  <g
     clip-path="url(#clip14)"
     clip-rule="nonzero"
     id="g335"
     style="stroke:#a5a5a9"
     transform="translate(-10.541016,0.00156201)">
    <path
       style="fill:none;stroke:#a5a5a9;stroke-width:1.5;stroke-linecap:square;stroke-linejoin:round;stroke-miterlimit:4;stroke-opacity:1"
       d="m 51.324219,228.34375 7.441406,3.375 14.878906,6.74609 9.921875,4.3086 9.917969,4.08203 9.921875,3.79297 7.4375,2.625 4.96094,1.6289 2.48047,0.59375 2.48047,0.14844 7.43749,2.00391 7.44141,1.74218 7.44141,1.45313 7.4375,1.14453 4.96093,0.57813 4.96094,0.42578 4.95703,0.25781 4.96094,0.0859 4.96094,-0.10157 4.96094,-0.30468 4.96093,-0.51953 4.96094,-0.76172 4.95703,-1.02735 4.96094,-1.33593 4.96094,-1.6875 2.48047,-1.00391 2.47656,-1.12109 2.48437,-1.26172 2.47657,-1.41797 2.48046,-1.61328 2.48047,-1.84766 2.48047,-2.15625 2.47656,-2.58984 2.48438,-3.26953 2.47656,-4.74219 2.48047,-14.40235 2.48438,-6.07421 2.47656,-4.08985 2.48047,-3.3789 2.48047,-2.9961 2.48046,-2.75 4.96094,-5.01172 4.95703,-4.60547 4.96094,-4.33984 7.44141,-6.1875 7.4375,-5.92187 9.92187,-7.62891 12.39844,-9.26172 17.35937,-12.63281 19.84375,-14.14453 2.47657,-1.75391 4.96093,-2.48437 7.44141,-5.26172 2.47656,-1.47656 12.40235,-3.91407 12.40234,-4.17578 12.39844,-4.42578 12.39844,-4.65234 7.4414,-2.89453"
       id="path333" />
  </g>
  <g
     clip-path="url(#clip15)"
     clip-rule="nonzero"
     id="g339"
     style="stroke:#a5a5a9"
     transform="translate(-10.541016,0.00156201)">
    <path
       style="fill:none;stroke:#a5a5a9;stroke-width:1.5;stroke-linecap:square;stroke-linejoin:round;stroke-miterlimit:4;stroke-opacity:1"
       d="m 51.324219,228.28516 19.839843,8.83984 12.402344,5.26953 9.917969,3.97266 9.921875,3.68359 7.4375,2.54297 7.44141,2.32812 2.48047,-1.44531 2.48046,-2.39844 2.47657,-2.90234 2.48046,-3.68359 2.48438,-5.21094 2.47656,-16.43359 2.48047,-8.30079 2.48047,-5.14453 2.48047,-4.20312 2.48047,-3.70703 2.48047,-3.39453 4.95703,-6.1875 4.96093,-5.67188 4.96094,-5.33984 7.44141,-7.58203 7.4375,-7.23047 7.4414,-6.95703 4.95704,-4.4375 2.48437,-1.80469 2.47656,-0.54297 7.44141,-0.29688 14.87891,-0.58984 12.40234,-0.74219 9.91797,-0.78515 9.91797,-0.97266 9.92578,-1.16797 9.91797,-1.37109 9.91797,-1.58203 9.92187,-1.79688 9.91797,-2.00781 9.91797,-2.21875 9.92578,-2.42578 9.91797,-2.62891 9.91797,-2.82422 2.48437,-1.28515 7.4375,-5.22656 2.48047,-1.5 2.47656,-1.01954 24.80469,-17.3125 24.79688,-17.046871 7.4414,-5.066407"
       id="path337" />
  </g>
  <g
     clip-path="url(#clip16)"
     clip-rule="nonzero"
     id="g343"
     style="stroke:#a5a5a9"
     transform="translate(-10.541016,0.00156201)">
    <path
       style="fill:none;stroke:#a5a5a9;stroke-width:1.5;stroke-linecap:square;stroke-linejoin:round;stroke-miterlimit:4;stroke-opacity:1"
       d="m 51.324219,210.27344 2.480469,-2.25 4.960937,-7.67188 4.960937,-7.10547 4.957032,-6.55078 4.960937,-6.20312 7.441407,-8.88672 7.4375,-8.57031 7.441406,-8.28125 2.480468,-2.4336 2.480468,-1.02344 2.48047,-0.12109 7.4375,0.0703 59.51953,1.02344 12.40234,-0.0469 4.95704,-0.15235 2.48437,-0.47656 2.47656,-1.72266 2.48047,-2.10156 2.48047,-1.82031 2.48047,-0.28516 19.83984,-0.69922 12.39844,-0.71093 12.40234,-0.97266 9.91797,-0.98438 9.92188,-1.17578 9.91797,-1.375 9.92187,-1.58203 9.92188,-1.78906 9.91797,-1.99219 9.91796,-2.20312 9.92188,-2.40235 9.92187,-2.60156 9.91797,-2.78906 2.48047,-0.72656 2.48047,-0.97657 24.79688,-17.22265 27.28125,-18.664065 7.4414,-5.042969"
       id="path341" />
  </g>
  <g
     clip-path="url(#clip17)"
     clip-rule="nonzero"
     id="g347"
     style="stroke:#a5a5a9"
     transform="translate(-10.541016,0.00156201)">
    <path
       style="fill:none;stroke:#a5a5a9;stroke-width:1.5;stroke-linecap:square;stroke-linejoin:round;stroke-miterlimit:4;stroke-opacity:1"
       d="m 51.324219,150.40625 22.320312,0.11328 22.320313,0.17578 2.480468,-0.28515 2.480468,-1.67579 2.48047,-2.5 2.48047,-1.61328 2.48047,-0.10547 12.39844,0.23047 42.16015,0.89063 17.35938,0.13672 12.39843,-0.0781 2.48047,-0.0625 2.48047,-0.39453 2.48047,-1.93359 22.32031,-19.17188 14.87891,-12.46484 19.84375,-16.312501 19.83594,-16.035157 22.32031,-17.789062 24.80078,-19.523438 32.23828,-25.082031 32.24219,-24.816406 2.48047,-1.332031 10.16797,-2.078125"
       id="path345" />
  </g>
  <g
     clip-path="url(#clip18)"
     clip-rule="nonzero"
     id="g351"
     style="stroke:#a5a5a9"
     transform="translate(-10.541016,0.00156201)">
    <path
       style="fill:none;stroke:#a5a5a9;stroke-width:1.5;stroke-linecap:square;stroke-linejoin:round;stroke-miterlimit:4;stroke-opacity:1"
       d="m 51.324219,143.69922 22.320312,0.12109 29.761719,0.35156 2.48047,-1.03125 4.95703,-5.25781 39.67969,-43.566404 42.16015,-46.589844 29.76172,-33.097656 2.47656,-2.054687 19.84375,-1.535157 17.35938,-1.550781 17.35937,-1.757812 17.35938,-1.972657 17.35937,-2.207031 17.36329,-2.445312 17.35937,-2.699219 17.35938,-2.953125 17.36328,-3.214844 4.95703,-0.96875 2.48047,-1.058593 1.97265,-1.511719"
       id="path349" />
  </g>
  <g
     clip-path="url(#clip19)"
     clip-rule="nonzero"
     id="g355"
     style="stroke:#a5a5a9"
     transform="translate(-10.541016,0.00156201)">
    <path
       style="fill:none;stroke:#a5a5a9;stroke-width:1.5;stroke-linecap:square;stroke-linejoin:round;stroke-miterlimit:4;stroke-opacity:1"
       d="m 51.324219,18.011719 27.28125,-0.113281 27.281251,-0.351563 24.80078,-0.539063 24.79687,-0.769531 22.32032,-0.917969 22.32031,-1.15625 19.83984,-1.246093 2.48047,-0.171875 2.47656,-0.882813 2.48438,-2.761719 2.47656,-1.386718 19.84375,-1.542969 17.35938,-1.558594 17.35937,-1.765625 17.35938,-1.980468 17.35937,-2.210938 17.35938,-2.453125 17.36328,-2.699219 17.35937,-2.957031 10.13672,-1.847656"
       id="path353" />
  </g>
  <g
     clip-path="url(#clip20)"
     clip-rule="nonzero"
     id="g359"
     style="stroke:#a5a5a9"
     transform="translate(-10.541016,0.00156201)">
    <path
       style="fill:none;stroke:#a5a5a9;stroke-width:1.5;stroke-linecap:square;stroke-linejoin:round;stroke-miterlimit:4;stroke-opacity:1"
       d="m 51.324219,13.304688 27.28125,-0.109376 27.281251,-0.335937 24.80078,-0.515625 24.79687,-0.742188 22.32032,-0.882812 22.32031,-1.113281 19.83984,-1.203125 7.44141,-0.507813 2.47656,-1.558593 15.82813,-17.636719"
       id="path357" />
  </g>
  <path
     style="fill:none;stroke:#ffffff;stroke-width:0.8;stroke-linecap:square;stroke-linejoin:miter;stroke-miterlimit:4;stroke-opacity:1"
     d="M 40.783203,266.51328 V 0.40000001"
     id="path361" />
  <path
     style="fill:none;stroke:#ffffff;stroke-width:0.8;stroke-linecap:square;stroke-linejoin:miter;stroke-miterlimit:4;stroke-opacity:1"
     d="M 397.90429,266.51328 V 0.40000001"
     id="path363" />
  <path
     style="fill:none;stroke:#a5a5a9;stroke-width:0.8;stroke-linecap:square;stroke-linejoin:miter;stroke-miterlimit:4;stroke-opacity:1"
     d="M 40.783203,266.51328 H 397.90429"
     id="path365" />
  <path
     style="fill:none;stroke:#ffffff;stroke-width:0.8;stroke-linecap:square;stroke-linejoin:miter;stroke-miterlimit:4;stroke-opacity:1"
     d="M 40.783203,0.40000001 H 397.90429"
     id="path367" />
  <path
     style="fill:#ffffff;fill-opacity:1;fill-rule:nonzero;stroke:none"
     d="m 32.732422,216.42343 -0.0625,0.0781 c -0.585938,-0.043 -1.289063,-0.0625 -2.109376,-0.0625 -0.8125,0 -1.667968,0.0195 -2.5625,0.0625 l -0.07812,-0.0781 v -0.375 l 0.07812,-0.0625 c 0.207032,-0.0195 0.410157,-0.0391 0.609376,-0.0625 0.351562,-0.0312 0.582031,-0.0664 0.6875,-0.10937 0.0625,-0.0312 0.117187,-0.10156 0.171874,-0.21875 0.07031,-0.19531 0.109376,-0.97656 0.109376,-2.34375 v -1.54688 c 0,-0.45703 -0.0078,-1.03906 -0.01563,-1.75 l -0.01562,-0.45312 c 0,-0.20703 -0.04297,-0.3125 -0.125,-0.3125 -0.04297,0 -0.164063,0.0469 -0.359376,0.14062 -0.574218,0.26172 -1.058593,0.49219 -1.453124,0.6875 l -0.07813,-0.0469 c -0.02344,-0.22656 -0.0625,-0.48828 -0.125,-0.78125 v -0.0469 c 1.132813,-0.32031 2.40625,-0.7539 3.8125,-1.29687 l 0.125,0.0937 c -0.02344,0.24219 -0.04297,0.60156 -0.0625,1.07812 -0.01172,0.1875 -0.02734,0.67188 -0.04687,1.45313 l -0.01563,2.4375 c 0,1.73047 0.03125,2.66406 0.09375,2.79687 0.03906,0.0937 0.101563,0.15235 0.1875,0.17188 0.144532,0.043 0.53125,0.0781 1.15625,0.10937 l 0.07813,0.0625 z m 0,0"
     id="path421" />
  <path
     style="fill:none;stroke:#ffffff;stroke-width:1.37804;stroke-linecap:round;stroke-linejoin:round;stroke-miterlimit:4;stroke-opacity:1"
     d="m 38.232422,212.16953 c 0,4.51172 -3.65625,8.16797 -8.164063,8.16797 -4.511719,0 -8.167969,-3.65625 -8.167969,-8.16797 0,-4.50781 3.65625,-8.16406 8.167969,-8.16406 4.507813,0 8.164063,3.65625 8.164063,8.16406 z m 0,0"
     id="path423" />
  <path
     style="fill:#ffffff;fill-opacity:1;fill-rule:nonzero;stroke:none"
     d="m 76.654296,255.38047 c -0.05469,0.48046 -0.0625,0.9375 -0.03125,1.375 l -0.0625,0.0781 c -1.136718,-0.043 -2.0625,-0.0625 -2.78125,-0.0625 -0.75,0 -1.648437,0.0195 -2.6875,0.0625 l -0.07812,-0.0781 v -0.5625 l 1.265624,-1.28125 c 0.9375,-0.95704 1.550782,-1.6875 1.84375,-2.1875 0.164063,-0.28907 0.285157,-0.55469 0.359376,-0.79688 0.07031,-0.23828 0.109374,-0.49219 0.109374,-0.76562 0,-0.97657 -0.453124,-1.46875 -1.359374,-1.46875 -0.5,0 -0.898438,0.1875 -1.1875,0.5625 -0.05469,0.17968 -0.136719,0.49218 -0.25,0.9375 l -0.0625,0.0469 H 71.37305 l -0.0625,-0.0469 0.234376,-2.0625 c 0.519531,-0.51954 1.242187,-0.78125 2.171874,-0.78125 0.820313,0 1.457032,0.21484 1.90625,0.64062 0.414063,0.39844 0.625,0.92188 0.625,1.57813 0,0.27343 -0.03125,0.51562 -0.09375,0.73437 -0.125,0.46875 -0.386718,0.9375 -0.78125,1.40625 -0.335937,0.38672 -0.835937,0.89844 -1.5,1.53125 -0.242187,0.24219 -0.605468,0.59375 -1.09375,1.0625 v 0.0781 h 1.09375 c 0.320313,0 0.625,-0.004 0.90625,-0.0156 l 1.0625,-0.0312 c 0.269532,0 0.507813,-0.008 0.71875,-0.0312 z m 0,0"
     id="path425" />
  <path
     style="fill:none;stroke:#ffffff;stroke-width:1.37804;stroke-linecap:round;stroke-linejoin:round;stroke-miterlimit:4;stroke-opacity:1"
     d="m 82.001953,252.5914 c 0,4.50782 -3.65625,8.16407 -8.167969,8.16407 -4.511719,0 -8.167969,-3.65625 -8.167969,-8.16407 0,-4.51172 3.65625,-8.16797 8.167969,-8.16797 4.511719,0 8.167969,3.65625 8.167969,8.16797 z m 0,0"
     id="path427" />
  <path
     style="fill:#ffffff;fill-opacity:1;fill-rule:nonzero;stroke:none"
     d="m 57.923828,133.15 c 0,0.875 -0.367188,1.61718 -1.09375,2.21875 -0.730469,0.60547 -1.589844,0.90625 -2.578125,0.90625 -0.523438,0 -1.023438,-0.10938 -1.5,-0.32813 -0.07422,-0.71875 -0.171875,-1.32031 -0.296875,-1.8125 l 0.04687,-0.0937 0.296875,-0.0937 0.07813,0.0312 c 0.40625,1.04297 1.054687,1.5625 1.953125,1.5625 0.46875,0 0.84375,-0.14844 1.125,-0.45312 0.28125,-0.30078 0.421875,-0.71875 0.421875,-1.25 0,-0.51953 -0.15625,-0.92188 -0.46875,-1.20313 -0.292969,-0.26953 -0.683594,-0.40625 -1.171875,-0.40625 -0.230469,0 -0.476563,0.0391 -0.734375,0.10938 l -0.07813,-0.0781 c 0.09375,-0.28906 0.171875,-0.60156 0.234375,-0.9375 h 0.515625 c 0.363281,0 0.675781,-0.1289 0.9375,-0.39062 0.269531,-0.25782 0.40625,-0.57032 0.40625,-0.9375 0,-0.34375 -0.121094,-0.61719 -0.359375,-0.82813 -0.230469,-0.21875 -0.523438,-0.32812 -0.875,-0.32812 -0.5625,0 -0.945313,0.14843 -1.140625,0.4375 -0.09375,0.13672 -0.1875,0.32812 -0.28125,0.57812 l -0.0625,0.20313 -0.09375,0.0625 -0.3125,-0.0312 -0.0625,-0.0781 0.21875,-1 c 0.0625,-0.28906 0.109375,-0.57031 0.140625,-0.84375 0.53125,-0.39453 1.203125,-0.59375 2.015625,-0.59375 0.6875,0 1.234375,0.16797 1.640625,0.5 0.382812,0.33594 0.578125,0.76563 0.578125,1.29688 0,0.76172 -0.460938,1.38281 -1.375,1.85937 0.46875,0 0.890625,0.15625 1.265625,0.46875 0.40625,0.34375 0.609375,0.82813 0.609375,1.45313 z m 0,0"
     id="path429" />
  <path
     style="fill:none;stroke:#ffffff;stroke-width:1.37804;stroke-linecap:round;stroke-linejoin:round;stroke-miterlimit:4;stroke-opacity:1"
     d="m 63.357422,131.91953 c 0,4.51172 -3.65625,8.16797 -8.164063,8.16797 -4.511719,0 -8.167969,-3.65625 -8.167969,-8.16797 0,-4.50781 3.65625,-8.16406 8.167969,-8.16406 4.507813,0 8.164063,3.65625 8.164063,8.16406 z m 0,0"
     id="path431" />
  <path
     style="fill:#ffffff;fill-opacity:1;fill-rule:nonzero;stroke:none"
     d="m 239.79101,231.62265 c 0,0.89844 -0.34375,1.65625 -1.03125,2.28125 -0.71094,0.64844 -1.57422,0.96875 -2.59375,0.96875 -0.44922,0 -0.92187,-0.0937 -1.42187,-0.28125 -0.0312,-0.23828 -0.16407,-0.8164 -0.39063,-1.73437 l 0.0312,-0.0781 0.29688,-0.10937 0.0781,0.0312 c 0.41406,0.96094 1.07813,1.4375 1.98438,1.4375 0.64453,0 1.10156,-0.28516 1.375,-0.85938 0.11328,-0.25 0.17187,-0.53906 0.17187,-0.875 0,-0.55078 -0.15234,-0.98828 -0.45312,-1.3125 -0.29297,-0.32031 -0.69922,-0.48437 -1.21875,-0.48437 -0.46875,0 -0.94532,0.17969 -1.42188,0.53125 l -0.23437,-0.14063 c 0.0508,-0.78906 0.0781,-1.4414 0.0781,-1.95312 v -0.84375 c 0,-0.60156 -0.0312,-1.24219 -0.0937,-1.92188 l 0.0781,-0.0625 c 1,0.0547 1.83593,0.0781 2.51562,0.0781 0.4375,0 1.0625,-0.0234 1.875,-0.0781 l 0.0625,0.0937 c -0.0547,0.41797 -0.0781,0.71485 -0.0781,0.89063 0,0.10547 0.004,0.24609 0.0156,0.42187 l -0.0625,0.0781 c -0.5,-0.0195 -1.10547,-0.0312 -1.8125,-0.0312 -0.85547,0 -1.46484,0.0156 -1.82812,0.0469 l -0.0469,2.01563 c 0.59375,-0.28125 1.14844,-0.42188 1.67188,-0.42188 0.75,0 1.34375,0.21485 1.78125,0.64063 0.44531,0.41797 0.67187,0.97656 0.67187,1.67187 z m 0,0"
     id="path433" />
  <path
     style="fill:none;stroke:#ffffff;stroke-width:1.37804;stroke-linecap:round;stroke-linejoin:round;stroke-miterlimit:4;stroke-opacity:1"
     d="m 245.23242,230.54453 c 0,4.51172 -3.65625,8.16797 -8.16407,8.16797 -4.51171,0 -8.16796,-3.65625 -8.16796,-8.16797 0,-4.50781 3.65625,-8.16406 8.16796,-8.16406 4.50782,0 8.16407,3.65625 8.16407,8.16406 z m 0,0"
     id="path435" />
  <path
     style="fill:#ffffff;fill-opacity:1;fill-rule:nonzero;stroke:none"
     d="m 73.486328,163.72812 -0.0625,0.0781 c -0.59375,-0.0312 -1.261719,-0.0469 -2,-0.0469 -0.40625,0 -1.089844,0.0156 -2.046875,0.0469 l -0.0625,-0.0625 v -0.39063 l 0.0625,-0.0625 0.671875,-0.0469 c 0.320312,-0.0312 0.515625,-0.0781 0.578125,-0.14063 0.08203,-0.0937 0.128906,-0.3164 0.140625,-0.67187 l 0.03125,-0.79688 h -0.8125 l -1.234375,0.0156 c -0.230469,0 -0.558594,0.008 -0.984375,0.0156 l -0.09375,-0.51562 c 0.164062,-0.51953 0.613281,-1.45703 1.34375,-2.8125 0.75,-1.38282 1.332031,-2.33594 1.75,-2.85938 l 1.546875,-0.29687 0.109375,0.0937 c -0.07422,0.79297 -0.109375,2.08984 -0.109375,3.89062 v 1.45313 h 0.203125 c 0.195312,0 0.484375,-0.008 0.859375,-0.0312 l 0.07813,0.0625 c -0.01172,0.40625 -0.01172,0.71093 0,0.90625 l -0.07813,0.0781 c -0.0625,0 -0.167969,0 -0.3125,0 h -0.75 c 0,0.90625 0.04687,1.40235 0.140625,1.48438 0.07031,0.0742 0.226562,0.12109 0.46875,0.14062 0.1875,0.0117 0.351562,0.0273 0.5,0.0469 l 0.0625,0.0625 z m -2.625,-7.40625 c -0.542969,0.875 -0.945313,1.5586 -1.203125,2.04688 -0.1875,0.34375 -0.546875,1.09375 -1.078125,2.25 h 2.21875 z m 0,0"
     id="path437" />
  <path
     style="fill:none;stroke:#ffffff;stroke-width:1.37804;stroke-linecap:round;stroke-linejoin:round;stroke-miterlimit:4;stroke-opacity:1"
     d="m 78.732422,159.66953 c 0,4.51172 -3.65625,8.16797 -8.164063,8.16797 -4.511719,0 -8.167969,-3.65625 -8.167969,-8.16797 0,-4.50781 3.65625,-8.16406 8.167969,-8.16406 4.507813,0 8.164063,3.65625 8.164063,8.16406 z m 0,0"
     id="path439" />
  <path
     style="fill:#ffffff;fill-opacity:1;fill-rule:nonzero;stroke:none"
     d="m 170.77929,178.9625 c 0,1.17968 -0.41797,2.0625 -1.25,2.65625 -0.39844,0.26953 -0.89062,0.40625 -1.48437,0.40625 -0.84375,0 -1.5,-0.30078 -1.96875,-0.90625 -0.49219,-0.61328 -0.73438,-1.48438 -0.73438,-2.60938 0,-1.08203 0.19531,-1.98437 0.59375,-2.70312 0.41406,-0.75782 0.95703,-1.36328 1.625,-1.8125 0.6875,-0.44532 1.45703,-0.67188 2.3125,-0.67188 l 0.48438,0.39063 -0.1875,0.21875 c -0.14844,-0.0312 -0.28907,-0.0469 -0.42188,-0.0469 -0.63672,0 -1.1875,0.23438 -1.65625,0.70313 -0.21875,0.21093 -0.40625,0.47656 -0.5625,0.79687 -0.27344,0.53125 -0.44922,1.26563 -0.53125,2.20313 0.55078,-0.50782 0.87891,-0.78907 0.98438,-0.84375 0.26953,-0.10157 0.57812,-0.15625 0.92187,-0.15625 0.53125,0 0.96875,0.19922 1.3125,0.59375 0.375,0.42968 0.5625,1.02343 0.5625,1.78125 z m -1.48437,0.67187 c 0,-0.63281 -0.1211,-1.125 -0.35938,-1.46875 -0.21875,-0.32031 -0.51562,-0.48437 -0.89062,-0.48437 -0.49219,0 -0.82032,0.21484 -0.98438,0.64062 -0.0742,0.19922 -0.10937,0.47656 -0.10937,0.82813 0,0.89843 0.17187,1.53125 0.51562,1.90625 0.19531,0.21875 0.44141,0.32812 0.73438,0.32812 0.72656,0 1.09375,-0.58203 1.09375,-1.75 z m 0,0"
     id="path441" />
  <path
     style="fill:none;stroke:#ffffff;stroke-width:1.37804;stroke-linecap:round;stroke-linejoin:round;stroke-miterlimit:4;stroke-opacity:1"
     d="m 176.23242,177.66953 c 0,4.51172 -3.65625,8.16797 -8.16407,8.16797 -4.51171,0 -8.16796,-3.65625 -8.16796,-8.16797 0,-4.50781 3.65625,-8.16406 8.16796,-8.16406 4.50782,0 8.16407,3.65625 8.16407,8.16406 z m 0,0"
     id="path443" />
  <g
     inkscape:groupmode="layer"
     id="layer1"
     inkscape:label="Plot"
     transform="translate(-10.541016,0.00156201)" />
</svg>
