<?xml version="1.0" encoding="UTF-8" standalone="no"?>
<svg
   width="770.55078pt"
   height="213.77734pt"
   viewBox="0 0 770.55078 213.77734"
   version="1.2"
   id="svg180"
   xmlns="http://www.w3.org/2000/svg"
   xmlns:svg="http://www.w3.org/2000/svg">
  <defs
     id="defs77">
    <clipPath
       id="clip1">
      <path
         d="m 1,0.835938 h 99 V 115 H 1 Z m 0,0"
         id="path2" />
    </clipPath>
    <clipPath
       id="clip2">
      <path
         d="M 115,0.835938 H 268 V 115 H 115 Z m 0,0"
         id="path5" />
    </clipPath>
    <clipPath
       id="clip3">
      <path
         d="M 285,0.835938 H 385 V 115 H 285 Z m 0,0"
         id="path8" />
    </clipPath>
    <clipPath
       id="clip4">
      <path
         d="m 116,173 h 34 v 41.83594 h -34 z m 0,0"
         id="path11" />
    </clipPath>
    <clipPath
       id="clip5">
      <path
         d="m 155,183 h 28 v 31.83594 h -28 z m 0,0"
         id="path14" />
    </clipPath>
    <clipPath
       id="clip6">
      <path
         d="m 190,183 h 17 v 31.83594 h -17 z m 0,0"
         id="path17" />
    </clipPath>
    <clipPath
       id="clip7">
      <path
         d="m 224,173 h 55 v 41.83594 h -55 z m 0,0"
         id="path20" />
    </clipPath>
    <clipPath
       id="clip8">
      <path
         d="m 282,171 h 8 v 43.83594 h -8 z m 0,0"
         id="path23" />
    </clipPath>
    <clipPath
       id="clip9">
      <path
         d="m 296,183 h 24 v 31.83594 h -24 z m 0,0"
         id="path26" />
    </clipPath>
    <clipPath
       id="clip10">
      <path
         d="m 325,183 h 25 v 31.83594 h -25 z m 0,0"
         id="path29" />
    </clipPath>
    <clipPath
       id="clip11">
      <path
         d="m 355,183 h 27 v 31.83594 h -27 z m 0,0"
         id="path32" />
    </clipPath>
    <clipPath
       id="clip12">
      <path
         d="m 389,183 h 28 v 31.83594 h -28 z m 0,0"
         id="path35" />
    </clipPath>
    <clipPath
       id="clip13">
      <path
         d="m 423,183 h 25 v 31.83594 h -25 z m 0,0"
         id="path38" />
    </clipPath>
    <clipPath
       id="clip14">
      <path
         d="m 453,183 h 24 v 31.83594 h -24 z m 0,0"
         id="path41" />
    </clipPath>
    <clipPath
       id="clip15">
      <path
         d="m 484,171 h 28 v 43.83594 h -28 z m 0,0"
         id="path44" />
    </clipPath>
    <clipPath
       id="clip16">
      <path
         d="m 517,183 h 28 v 31.83594 h -28 z m 0,0"
         id="path47" />
    </clipPath>
    <clipPath
       id="clip17">
      <path
         d="m 551,171 h 19 v 43.83594 h -19 z m 0,0"
         id="path50" />
    </clipPath>
    <clipPath
       id="clip18">
      <path
         d="m 572,175 h 19 v 39.83594 h -19 z m 0,0"
         id="path53" />
    </clipPath>
    <clipPath
       id="clip19">
      <path
         d="m 595,183 h 24 v 31.83594 h -24 z m 0,0"
         id="path56" />
    </clipPath>
    <clipPath
       id="clip20">
      <path
         d="m 623,171 h 19 v 43.83594 h -19 z m 0,0"
         id="path59" />
    </clipPath>
    <clipPath
       id="clip21">
      <path
         d="m 642,183 h 30 v 31.83594 h -30 z m 0,0"
         id="path62" />
    </clipPath>
    <clipPath
       id="clip22">
      <path
         d="m 679,183 h 28 v 31.83594 h -28 z m 0,0"
         id="path65" />
    </clipPath>
    <clipPath
       id="clip23">
      <path
         d="m 713,171 h 29 v 43.83594 h -29 z m 0,0"
         id="path68" />
    </clipPath>
    <clipPath
       id="clip24">
      <path
         d="m 748,183 h 25 v 31.83594 h -25 z m 0,0"
         id="path71" />
    </clipPath>
    <clipPath
       id="clip25">
      <path
         d="m 778,207 h 7.98437 v 7.83594 H 778 Z m 0,0"
         id="path74" />
    </clipPath>
  </defs>
  <g
     id="surface4352"
     transform="translate(-1.472656,-0.953125)">
    <g
       clip-path="url(#clip1)"
       clip-rule="nonzero"
       id="g81"
       style="fill:#ffffff;fill-opacity:1">
      <path
         style="fill:#ffffff;fill-opacity:1;fill-rule:nonzero;stroke:none"
         d="M 96.429688,18.878906 H 27.789062 c -4.621093,0 -7.644531,3.554688 -7.644531,8.355469 V 48.257812 H 91.25 L 88.089844,66.179688 H 20.144531 V 114.76172 H 1.472656 V 26.207031 C 1.472656,12.511719 7.875,0.953125 25.65625,0.953125 h 73.933594 l -3.160156,17.925781"
         id="path79" />
    </g>
    <g
       clip-path="url(#clip2)"
       clip-rule="nonzero"
       id="g85"
       style="fill:#ffffff;fill-opacity:1">
      <path
         style="fill:#ffffff;fill-opacity:1;fill-rule:nonzero;stroke:none"
         d="m 115.45703,0.953125 v 83.402344 c 0,19.562501 4.98047,30.410161 27.92188,30.410161 H 267.14453 V 0.953125 h -18.84766 v 96.738281 h -37.96875 c -6.04296,0 -8.35546,-2.132812 -8.35546,-7.824218 V 0.953125 h -18.85157 v 96.738281 h -38.5 c -7.46875,0 -10.13672,-2.664062 -10.13672,-10.132812 V 0.953125 h -19.02734"
         id="path83" />
    </g>
    <g
       clip-path="url(#clip3)"
       clip-rule="nonzero"
       id="g89"
       style="fill:#ffffff;fill-opacity:1">
      <path
         style="fill:#ffffff;fill-opacity:1;fill-rule:nonzero;stroke:none"
         d="M 380.95312,18.878906 H 312.3125 c -4.62109,0 -7.64453,3.554688 -7.64453,8.355469 v 21.023437 h 71.10547 l -3.16016,17.921876 H 304.66797 V 114.76172 H 285.99609 V 26.207031 c 0,-13.695312 6.40235,-25.253906 24.1836,-25.253906 h 73.93359 l -3.16016,17.925781"
         id="path87" />
    </g>
    <g
       clip-path="url(#clip4)"
       clip-rule="nonzero"
       id="g93"
       style="fill:#ffffff;fill-opacity:1">
      <path
         style="fill:#ffffff;fill-opacity:1;fill-rule:evenodd;stroke:none"
         d="m 116.88281,214.00781 h 0.83985 c 1.80859,0 3.91406,0.0586 6.32422,0.1211 2.89062,0.0586 5.23828,0.0586 7.16796,0.0586 5.23828,0 8.78907,-0.78125 11.14063,-2.46875 4.27344,-3.07031 6.80078,-9.51172 6.80078,-17.46094 0,-8.61328 -2.40625,-15.11719 -6.74219,-18.0664 -2.46875,-1.7461 -5.48047,-2.53125 -9.75781,-2.53125 -0.60156,0 -3.79297,0.0625 -9.39062,0.18359 h -6.38282 v 0.48047 c 0.0586,1.08203 0.1211,4.27344 0.17969,9.57422 l 0.12109,10.05859 -0.12109,9.99609 c -0.0586,5.29688 -0.12109,8.48829 -0.17969,9.57422 z m 6.6836,-4.27344 V 209.25 l -0.1211,-6.98438 -0.0586,-8.30859 v -1.26562 c 0,-1.625 0,-4.45704 0.0586,-8.3711 0,-2.53125 0.0586,-4.39453 0.1211,-5.53906 v -0.66406 c 1.5039,-0.23828 4.875,-0.42188 7.10546,-0.42188 8.06641,0 11.80079,5.1211 11.80079,16.37891 0,7.04687 -1.50391,11.98437 -4.39454,14.15234 -1.5664,1.14453 -4.27343,1.8086 -7.52734,1.8086 l -3.3125,-0.0625 c -1.68359,-0.0586 -2.71094,-0.0586 -3.1914,-0.17969 -0.0586,0 -0.17969,0 -0.48047,-0.0586"
         id="path91" />
    </g>
    <g
       clip-path="url(#clip5)"
       clip-rule="nonzero"
       id="g97"
       style="fill:#ffffff;fill-opacity:1">
      <path
         style="fill:#ffffff;fill-opacity:1;fill-rule:evenodd;stroke:none"
         d="m 181.4375,213.16406 v -4.8164 c -3.31641,1.5039 -6.50391,2.22656 -9.75781,2.22656 -6.625,0 -9.69532,-3.73047 -9.69532,-11.67969 v -1.02344 l 0.66407,-0.0625 c 1.14062,-0.0586 4.09375,-0.0586 8.85156,-0.0586 5.66016,0 9.03125,0 10.17578,0.0586 l 0.66406,0.0625 c 0.0586,-1.08593 0.0586,-1.5664 0.0586,-2.58984 0,-4.15625 -0.54297,-6.32422 -2.04688,-8.25 -1.92578,-2.41016 -5.35937,-3.61328 -10.11719,-3.61328 -9.7539,0 -14.26953,5.05859 -14.26953,15.83594 0,10.41796 4.69532,15.41796 14.44922,15.41796 3.67578,0 7.64844,-0.54296 11.02344,-1.50781 z M 162.22656,194.375 c 0.35938,-4.99609 2.71094,-7.16406 7.52735,-7.16406 4.8789,0 6.86328,1.92578 6.86328,6.74609 v 0.41797 h -0.54297 c -1.01953,0.0625 -2.88672,0.0625 -5.53906,0.0625 h -1.02344 c -3.79297,0 -6.02344,0 -6.6836,-0.0625 h -0.60156"
         id="path95" />
    </g>
    <g
       clip-path="url(#clip6)"
       clip-rule="nonzero"
       id="g101"
       style="fill:#ffffff;fill-opacity:1">
      <path
         style="fill:#ffffff;fill-opacity:1;fill-rule:evenodd;stroke:none"
         d="m 190.46094,214.00781 h 6.14062 v -0.60156 c -0.17969,-1.92578 -0.30078,-5.48047 -0.35937,-10.66016 v -1.32422 c 0,-5.11718 0.23828,-7.04687 1.14453,-9.21093 1.14062,-2.89063 3.0664,-4.27735 5.66015,-4.27735 1.08204,0 2.22657,0.17969 3.67188,0.60157 v -4.33594 c -1.26563,-0.54297 -2.28906,-0.78125 -3.49219,-0.78125 -2.41015,0 -4.45703,1.02344 -5.78125,2.94922 -0.66406,0.90234 -0.84375,1.26562 -1.625,2.95312 v -0.84375 l 0.0586,-3.79687 v -0.60157 h -5.41797 c 0.0586,0.30079 0.0586,0.48438 0.0586,0.60157 0.0586,1.02734 0.12109,3.375 0.17969,7.04687 l 0.0625,7.34766 -0.0625,7.58594 c -0.0586,3.375 -0.1211,5.66015 -0.17969,6.74609 0,0.12109 0,0.35937 -0.0586,0.60156"
         id="path99" />
    </g>
    <g
       clip-path="url(#clip7)"
       clip-rule="nonzero"
       id="g105"
       style="fill:#ffffff;fill-opacity:1">
      <path
         style="fill:#ffffff;fill-opacity:1;fill-rule:nonzero;stroke:none"
         d="m 236.29297,214.00781 h 6.74219 l 0.12109,-0.60156 2.23047,-8.61328 1.98437,-7.70703 c 1.86719,-6.86328 3.375,-12.52344 4.09766,-14.8125 l 0.30078,-1.14453 0.35938,1.32421 1.75,6.32422 c 1.98437,7.40625 2.76953,10.35547 4.27343,16.5586 0.84375,3.3125 1.44532,5.96093 1.92578,8.07031 l 0.1836,0.60156 h 6.80469 l 0.11718,-0.60156 c 0.60547,-1.92578 1.50782,-5.30078 2.76953,-9.99609 1.08594,-3.97657 1.92969,-7.10547 2.59375,-9.45313 l 3.00782,-10.30078 2.71093,-9.21094 0.24219,-0.60156 h -5.66015 l -0.1211,0.60156 -1.80859,7.64844 -2.46875,9.93359 -1.86719,7.58985 -1.80469,6.38281 -0.30078,1.20312 c -0.17969,-0.54296 -0.30078,-0.90234 -0.36328,-1.14453 -0.12109,-0.42187 -0.66016,-2.52734 -1.56641,-6.14062 l -1.98437,-7.70703 -2.28906,-9.81641 -1.92578,-7.94922 c -0.0625,-0.12109 -0.0625,-0.30078 -0.1211,-0.60156 H 249 l -0.12109,0.60156 c -0.30079,1.50391 -0.90235,4.21485 -1.86719,8.25 -1.26563,5.23828 -2.10938,8.55078 -2.46875,9.875 l -1.92578,7.40625 -1.6875,6.26172 -0.30078,1.14453 -0.36329,-1.20312 c -0.0586,-0.35938 -0.60156,-2.41016 -1.625,-6.14063 -0.96093,-3.67578 -1.5664,-6.08203 -1.86718,-7.22656 l -2.28907,-9.63672 -2.04687,-8.73047 -0.12109,-0.60156 h -7.34375 l 0.17968,0.60156 c 2.10938,6.6836 3.55078,11.37891 5.78125,19.51172 l 2.58985,9.15234 2.64843,10.29688 0.1211,0.60156"
         id="path103" />
    </g>
    <g
       clip-path="url(#clip8)"
       clip-rule="nonzero"
       id="g109"
       style="fill:#ffffff;fill-opacity:1">
      <path
         style="fill:#ffffff;fill-opacity:1;fill-rule:evenodd;stroke:none"
         d="m 282.64062,214.00781 h 6.20313 c -0.0625,-0.24219 -0.0625,-0.48047 -0.0625,-0.60156 -0.0586,-0.96484 -0.12109,-3.19141 -0.17969,-6.74609 l -0.0586,-7.58594 0.0586,-7.34766 c 0.0586,-3.79297 0.1211,-6.14062 0.17969,-7.04687 0,-0.11719 0,-0.30078 0.0625,-0.60157 h -6.20313 c 0,0.30079 0,0.48438 0.0586,0.60157 0.0625,1.02734 0.0625,3.375 0.12109,7.04687 l 0.1211,7.34766 -0.1211,7.58594 c 0,3.375 -0.0586,5.66015 -0.12109,6.74609 -0.0586,0.12109 -0.0586,0.35937 -0.0586,0.60156 z m -0.30078,-38.83984 c 0,2.40625 1.14453,3.73437 3.25,3.73437 2.34766,0 3.4336,-1.20703 3.4336,-3.73437 0,-2.46875 -1.08594,-3.73438 -3.3125,-3.73438 -2.22657,0 -3.3711,1.26563 -3.3711,3.73438"
         id="path107" />
    </g>
    <g
       clip-path="url(#clip9)"
       clip-rule="nonzero"
       id="g113"
       style="fill:#ffffff;fill-opacity:1">
      <path
         style="fill:#ffffff;fill-opacity:1;fill-rule:nonzero;stroke:none"
         d="m 296.38672,213.10547 c 4.09375,1.08203 7.64844,1.5664 11.20312,1.5664 7.52735,0 12.28125,-3.67578 12.28125,-9.45703 0,-2.64843 -1.08203,-5.05859 -3.07031,-6.4414 -1.68359,-1.20313 -3.19141,-1.8086 -6.98437,-2.83203 -3.49219,-0.90235 -4.21485,-1.14454 -5.23829,-1.6836 -1.26562,-0.66406 -1.98828,-1.74609 -1.98828,-3.07422 0,-2.46875 2.16797,-3.91406 5.83985,-3.91406 2.53125,0 5.48047,0.66406 9.09375,2.05078 v -5.30078 c -0.84375,0 -1.02344,0 -2.28907,-0.12109 -3.42968,-0.35938 -5.71875,-0.48047 -7.46484,-0.48047 -6.74609,0 -11.02344,3.37109 -11.02344,8.60937 0,2.41016 1.02735,4.57813 2.83203,5.90235 1.38672,1.02343 2.76954,1.625 5.78125,2.46875 1.86719,0.54297 3.13282,0.90234 3.67579,1.08203 0.90234,0.24219 1.68359,0.54297 2.40625,0.96484 0.54296,0.24219 0.96484,0.54297 1.32421,0.96485 0.66407,0.72265 1.02344,1.68359 1.02344,2.71093 0,2.82813 -2.52734,4.57422 -6.68359,4.57422 -3.3086,0 -6.5625,-0.84375 -10.71875,-2.70703 v 5.11719"
         id="path111" />
    </g>
    <g
       clip-path="url(#clip10)"
       clip-rule="nonzero"
       id="g117"
       style="fill:#ffffff;fill-opacity:1">
      <path
         style="fill:#ffffff;fill-opacity:1;fill-rule:nonzero;stroke:none"
         d="m 325.65625,213.10547 c 4.09766,1.08203 7.64844,1.5664 11.20312,1.5664 7.52735,0 12.28516,-3.67578 12.28516,-9.45703 0,-2.64843 -1.08594,-5.05859 -3.07422,-6.4414 -1.68359,-1.20313 -3.1914,-1.8086 -6.98437,-2.83203 -3.49219,-0.90235 -4.21485,-1.14454 -5.23828,-1.6836 -1.26563,-0.66406 -1.98829,-1.74609 -1.98829,-3.07422 0,-2.46875 2.16797,-3.91406 5.83985,-3.91406 2.53125,0 5.48047,0.66406 9.09375,2.05078 v -5.30078 c -0.84375,0 -1.02344,0 -2.28516,-0.12109 -3.43359,-0.35938 -5.72265,-0.48047 -7.46875,-0.48047 -6.74219,0 -11.01953,3.37109 -11.01953,8.60937 0,2.41016 1.02344,4.57813 2.82813,5.90235 1.38671,1.02343 2.76953,1.625 5.78125,2.46875 1.86718,0.54297 3.13281,0.90234 3.67578,1.08203 0.90234,0.24219 1.68359,0.54297 2.41015,0.96484 0.53907,0.24219 0.96094,0.54297 1.32422,0.96485 0.66016,0.72265 1.02344,1.68359 1.02344,2.71093 0,2.82813 -2.53125,4.57422 -6.68359,4.57422 -3.31641,0 -6.56641,-0.84375 -10.72266,-2.70703 v 5.11719"
         id="path115" />
    </g>
    <g
       clip-path="url(#clip11)"
       clip-rule="nonzero"
       id="g121"
       style="fill:#ffffff;fill-opacity:1">
      <path
         style="fill:#ffffff;fill-opacity:1;fill-rule:evenodd;stroke:none"
         d="m 380.64062,213.16406 v -4.8164 c -3.3125,1.5039 -6.5039,2.22656 -9.7539,2.22656 -6.625,0 -9.69531,-3.73047 -9.69531,-11.67969 v -1.02344 l 0.66015,-0.0625 c 1.14453,-0.0586 4.09766,-0.0586 8.85156,-0.0586 5.66407,0 9.03516,0 10.17969,0.0586 l 0.66016,0.0625 c 0.0625,-1.08593 0.0625,-1.5664 0.0625,-2.58984 0,-4.15625 -0.54297,-6.32422 -2.04688,-8.25 -1.92968,-2.41016 -5.35937,-3.61328 -10.11718,-3.61328 -9.75782,0 -14.27344,5.05859 -14.27344,15.83594 0,10.41796 4.69531,15.41796 14.45312,15.41796 3.67188,0 7.64844,-0.54296 11.01953,-1.50781 z M 361.42969,194.375 c 0.36328,-4.99609 2.71093,-7.16406 7.53125,-7.16406 4.875,0 6.86328,1.92578 6.86328,6.74609 v 0.41797 h -0.54297 c -1.02344,0.0625 -2.89063,0.0625 -5.53906,0.0625 h -1.02344 c -3.79297,0 -6.02344,0 -6.6875,-0.0625 h -0.60156"
         id="path119" />
    </g>
    <g
       clip-path="url(#clip12)"
       clip-rule="nonzero"
       id="g125"
       style="fill:#ffffff;fill-opacity:1">
      <path
         style="fill:#ffffff;fill-opacity:1;fill-rule:evenodd;stroke:none"
         d="m 389.66406,214.00781 h 6.20313 l -0.0586,-0.60156 -0.0625,-5.41797 -0.12109,-6.56641 0.0625,-5.66015 c 0,-3.55078 0.42187,-5.11719 1.50391,-6.32422 1.32421,-1.38281 3.13281,-2.04688 5.90234,-2.04688 2.34766,0 3.97266,0.48438 5.11719,1.44532 1.38672,1.20703 1.86718,2.76953 1.86718,6.44531 l -0.0586,5.41797 -0.12109,8.79297 v 0.66015 c 0,1.86719 0,2.35157 0.17968,3.85547 h 6.38282 c -0.35938,-1.5664 -0.42188,-2.16797 -0.42188,-4.39453 -0.0586,-2.83203 -0.11719,-7.04687 -0.11719,-10.29687 v -3.01172 c 0,-0.60157 0.0586,-1.14453 0.0586,-1.7461 0,-4.21484 -0.24219,-5.53906 -1.02344,-6.98437 -0.48047,-0.96485 -1.32422,-1.8086 -2.34766,-2.41016 -1.92578,-1.20312 -4.33593,-1.74609 -7.41015,-1.74609 -4.51563,0 -7.70703,1.20312 -9.875,3.67187 v -0.66015 l -0.0586,-1.75 0.0586,-0.60157 h -5.66016 c 0.0625,0.30079 0.0625,0.48438 0.0625,0.60157 0.0586,1.02734 0.1211,3.375 0.17969,7.04687 l 0.0586,7.34766 -0.0586,7.58594 c -0.0586,3.375 -0.12109,5.66015 -0.17969,6.74609 0,0.12109 0,0.35937 -0.0625,0.60156"
         id="path123" />
    </g>
    <g
       clip-path="url(#clip13)"
       clip-rule="nonzero"
       id="g129"
       style="fill:#ffffff;fill-opacity:1">
      <path
         style="fill:#ffffff;fill-opacity:1;fill-rule:nonzero;stroke:none"
         d="m 423.80859,213.10547 c 4.09766,1.08203 7.64844,1.5664 11.20313,1.5664 7.52734,0 12.28515,-3.67578 12.28515,-9.45703 0,-2.64843 -1.08593,-5.05859 -3.07421,-6.4414 -1.6836,-1.20313 -3.19141,-1.8086 -6.98438,-2.83203 -3.49219,-0.90235 -4.21484,-1.14454 -5.23828,-1.6836 -1.26563,-0.66406 -1.98828,-1.74609 -1.98828,-3.07422 0,-2.46875 2.16797,-3.91406 5.84375,-3.91406 2.52734,0 5.47656,0.66406 9.08984,2.05078 v -5.30078 c -0.83984,0 -1.02344,0 -2.28906,-0.12109 -3.42969,-0.35938 -5.71875,-0.48047 -7.46484,-0.48047 -6.7461,0 -11.01954,3.37109 -11.01954,8.60937 0,2.41016 1.02344,4.57813 2.83204,5.90235 1.38281,1.02343 2.76562,1.625 5.77734,2.46875 1.86719,0.54297 3.13281,0.90234 3.67578,1.08203 0.90234,0.24219 1.68359,0.54297 2.40625,0.96484 0.54297,0.24219 0.96484,0.54297 1.32422,0.96485 0.66406,0.72265 1.02734,1.68359 1.02734,2.71093 0,2.82813 -2.53125,4.57422 -6.6875,4.57422 -3.3125,0 -6.5625,-0.84375 -10.71875,-2.70703 v 5.11719"
         id="path127" />
    </g>
    <g
       clip-path="url(#clip14)"
       clip-rule="nonzero"
       id="g133"
       style="fill:#ffffff;fill-opacity:1">
      <path
         style="fill:#ffffff;fill-opacity:1;fill-rule:nonzero;stroke:none"
         d="m 476.08203,183.89844 -0.66016,-0.0586 c -1.5664,-0.18359 -3.67578,-0.30078 -4.63671,-0.36328 -0.90235,-0.0586 -1.8086,-0.0586 -2.76954,-0.0586 -5.35937,0 -8.55078,1.02344 -10.78125,3.42969 -2.58984,2.83203 -3.91406,6.98828 -3.91406,12.28515 0,5.23828 1.14453,9.03516 3.55078,11.74219 2.41016,2.71094 5.17969,3.79687 9.9375,3.79687 3.3125,0 6.44532,-0.54296 9.33594,-1.5664 v -4.57813 c -2.10937,1.20703 -5.48047,2.04688 -8.19141,2.04688 -5.66015,0 -8.48828,-3.91406 -8.48828,-11.67969 0,-8.25 2.40625,-11.50391 8.60938,-11.50391 2.53125,0 5.23828,0.48438 8.00781,1.38672 v -4.8789"
         id="path131" />
    </g>
    <g
       clip-path="url(#clip15)"
       clip-rule="nonzero"
       id="g137"
       style="fill:#ffffff;fill-opacity:1">
      <path
         style="fill:#ffffff;fill-opacity:1;fill-rule:nonzero;stroke:none"
         d="m 484.28516,214.00781 h 6.20312 l -0.0586,-0.60156 c -0.0625,-1.56641 -0.1211,-4.09375 -0.1211,-7.52734 -0.0625,-3.3125 -0.0625,-6.14454 -0.12109,-8.42969 v -0.66406 c 0,-4.03516 0.42187,-5.90235 1.44531,-7.16407 1.20313,-1.44531 3.25,-2.23047 6.01953,-2.23047 5.17969,0 7.04688,2.04688 7.04688,7.64844 v 0.48047 l -0.23828,11.80469 v 1.38281 c 0,2.65234 0,3.3125 0.23828,5.30078 h 6.32422 c -0.42188,-3.67187 -0.54297,-6.98437 -0.54297,-12.52734 0,-2.22656 0,-4.63281 0.0586,-7.34375 v -0.66406 c 0,-3.91407 -0.48047,-5.78125 -1.86328,-7.16407 -1.86719,-1.92968 -5,-2.95312 -8.97266,-2.95312 -4.03515,0 -6.80468,0.96484 -9.33593,3.1914 0,-0.48046 -0.0586,-0.83984 -0.0586,-1.02343 0,-0.35938 0.0586,-2.46875 0.1211,-6.19922 l 0.17968,-7.53125 0.0586,-0.60156 h -6.38281 l 0.0625,0.60156 0.17968,11.38281 0.0586,10.29688 -0.0586,10.23828 -0.17968,9.69531 -0.0625,0.60156"
         id="path135" />
    </g>
    <g
       clip-path="url(#clip16)"
       clip-rule="nonzero"
       id="g141"
       style="fill:#ffffff;fill-opacity:1">
      <path
         style="fill:#ffffff;fill-opacity:1;fill-rule:evenodd;stroke:none"
         d="m 538.38281,209.07031 c 0,2.10547 0.1211,3.73438 0.36328,4.9375 h 5.35938 c -0.60156,-2.64844 -0.84375,-6.5625 -0.84375,-13.30859 v -0.84375 l 0.0586,-5.48047 v -0.72266 c 0,-4.69531 -0.35937,-6.07812 -1.98437,-7.58593 -1.98828,-1.86719 -4.75782,-2.64844 -9.63672,-2.64844 -1.6875,0 -3.49219,0.12109 -5.30078,0.30078 -2.04688,0.24219 -3.55078,0.35937 -4.51563,0.35937 -0.12109,0 -0.30078,0 -0.53906,-0.0586 l -0.30469,4.9375 c 3.61328,-1.08203 6.625,-1.56641 9.69531,-1.56641 4.87891,0 6.86719,1.44532 6.86719,5.1211 v 2.22656 c -1.98828,-0.12109 -4.9375,-0.24219 -6.5039,-0.24219 -8.61329,0 -13.12891,3.4336 -13.12891,10.11719 0,6.5625 3.67578,10.05859 10.53906,10.05859 4.87891,0 7.82813,-1.6289 9.875,-5.60156 z m -0.78125,-10.83984 v 0.30078 c 0,3.07031 -0.30078,5.48047 -0.84375,7.34766 -0.90234,2.89062 -3.55469,4.75781 -6.86328,4.75781 -3.79687,0 -6.08203,-2.28906 -6.08203,-6.08203 0,-4.57813 2.76953,-6.56641 9.15234,-6.56641 1.26563,0 2.16797,0 3.97266,0.18359 l 0.66406,0.0586"
         id="path139" />
    </g>
    <g
       clip-path="url(#clip17)"
       clip-rule="nonzero"
       id="g145"
       style="fill:#ffffff;fill-opacity:1">
      <path
         style="fill:#ffffff;fill-opacity:1;fill-rule:nonzero;stroke:none"
         d="m 554.42969,214.00781 h 6.20312 l -0.0625,-0.60156 c -0.0586,-1.625 -0.11719,-4.15625 -0.11719,-7.58594 0,-3.07422 -0.0625,-5.60156 -0.0625,-7.53125 -0.0586,-2.88672 -0.11718,-4.7539 -0.11718,-5.66015 v -5.23829 h 0.71875 l 3.2539,0.0625 c 2.22657,0.0586 2.64844,0.1211 4.09375,0.17969 l 0.42188,-3.61328 h -0.53906 c -1.75,0.12109 -3.85547,0.17969 -6.26563,0.17969 h -1.68359 v -0.60156 l 0.0586,-2.89063 c 0.0586,-3.01172 0.17969,-3.73437 1.02344,-4.63672 0.78125,-0.78125 1.80469,-1.14453 3.43359,-1.14453 1.50391,0 3.01172,0.24219 4.75781,0.72266 v -4.57813 c -0.66406,0.0625 -0.84375,0.0625 -1.5664,0.0625 h -3.25391 c -3.49219,0 -5.35937,0.30078 -6.80469,1.08203 -2.16796,1.14453 -3.13281,3.4336 -3.13281,7.22657 v 4.69921 c -0.35937,0.0586 -0.48047,0.0586 -0.66015,0.0586 -0.24219,0 -0.60157,0 -1.14454,-0.0586 h -1.08203 c -0.12109,0 -0.30078,-0.0625 -0.54297,-0.0625 v 3.4961 l 0.54297,-0.0625 1.14453,-0.0586 1.20313,-0.0625 h 0.53906 v 0.60157 l -0.0586,5 -0.0586,5.48047 -0.12109,7.40625 -0.12109,7.52734 v 0.60156"
         id="path143" />
    </g>
    <g
       clip-path="url(#clip18)"
       clip-rule="nonzero"
       id="g149"
       style="fill:#ffffff;fill-opacity:1">
      <path
         style="fill:#ffffff;fill-opacity:1;fill-rule:nonzero;stroke:none"
         d="m 590.1875,213.70703 v -3.79297 c -1.86719,0.48047 -2.95313,0.60156 -4.15625,0.60156 -2.41016,0 -3.67188,-1.02343 -3.91406,-3.2539 -0.1211,-1.08203 -0.1211,-1.5625 -0.17969,-5.11719 v -4.09375 l -0.0586,-4.39844 v -6.14062 h 4.21484 c 2.04687,0 3.30859,0.0625 3.85156,0.0625 0.17969,0 0.17969,0 0.42188,0.0586 l 0.42187,-3.67187 c -1.6875,0.17968 -2.34765,0.17968 -4.63672,0.23828 l -3.67187,0.0625 h -0.60156 v -0.96485 c 0,-0.36328 0,-1.32421 0.0586,-2.89062 l 0.12109,-4.03516 0.0586,-0.72265 -6.01953,1.6875 0.0586,0.48047 0.0586,3.37109 v 3.01172 h -1.92578 c -0.35937,-0.0586 -0.78125,-0.0586 -1.26562,-0.0586 l -0.42188,-0.0625 v 3.4961 h 0.42188 l 1.5664,-0.0625 h 1.6875 v 0.72265 l 0.0586,4.39454 -0.0586,4.75781 -0.0625,4.39844 c -0.11718,3.1289 -0.17968,5.17578 -0.17968,6.08203 0,4.57422 2.52734,6.80468 7.58593,6.80468 2.28907,0 3.97657,-0.24218 6.56641,-0.96484"
         id="path147" />
    </g>
    <g
       clip-path="url(#clip19)"
       clip-rule="nonzero"
       id="g153"
       style="fill:#ffffff;fill-opacity:1">
      <path
         style="fill:#ffffff;fill-opacity:1;fill-rule:nonzero;stroke:none"
         d="m 595.51172,213.10547 c 4.09375,1.08203 7.64453,1.5664 11.19922,1.5664 7.52734,0 12.28515,-3.67578 12.28515,-9.45703 0,-2.64843 -1.08593,-5.05859 -3.07031,-6.4414 -1.6875,-1.20313 -3.19141,-1.8086 -6.98828,-2.83203 -3.49219,-0.90235 -4.21484,-1.14454 -5.23828,-1.6836 -1.26172,-0.66406 -1.98438,-1.74609 -1.98438,-3.07422 0,-2.46875 2.16797,-3.91406 5.83985,-3.91406 2.53125,0 5.48047,0.66406 9.09375,2.05078 v -5.30078 c -0.84375,0 -1.02344,0 -2.28907,-0.12109 -3.43359,-0.35938 -5.72265,-0.48047 -7.46875,-0.48047 -6.74218,0 -11.01953,3.37109 -11.01953,8.60937 0,2.41016 1.02344,4.57813 2.83203,5.90235 1.38282,1.02343 2.76954,1.625 5.78125,2.46875 1.86719,0.54297 3.12891,0.90234 3.67188,1.08203 0.90234,0.24219 1.6875,0.54297 2.41016,0.96484 0.53906,0.24219 0.96093,0.54297 1.32421,0.96485 0.66016,0.72265 1.02344,1.68359 1.02344,2.71093 0,2.82813 -2.53125,4.57422 -6.68359,4.57422 -3.3125,0 -6.56641,-0.84375 -10.71875,-2.70703 v 5.11719"
         id="path151" />
    </g>
    <g
       clip-path="url(#clip20)"
       clip-rule="nonzero"
       id="g157"
       style="fill:#ffffff;fill-opacity:1">
      <path
         style="fill:#ffffff;fill-opacity:1;fill-rule:nonzero;stroke:none"
         d="m 626.76953,214.00781 h 6.19922 l -0.0586,-0.60156 c -0.0586,-1.625 -0.1211,-4.15625 -0.1211,-7.58594 0,-3.07422 -0.0586,-5.60156 -0.0586,-7.53125 -0.0625,-2.88672 -0.1211,-4.7539 -0.1211,-5.66015 v -5.23829 h 0.72266 l 3.25,0.0625 c 2.23047,0.0586 2.65234,0.1211 4.09766,0.17969 l 0.42187,-3.61328 h -0.54297 c -1.74609,0.12109 -3.85547,0.17969 -6.26172,0.17969 h -1.6875 v -0.60156 l 0.0586,-2.89063 c 0.0625,-3.01172 0.18359,-3.73437 1.02344,-4.63672 0.78515,-0.78125 1.80859,-1.14453 3.43359,-1.14453 1.50391,0 3.01172,0.24219 4.75781,0.72266 v -4.57813 c -0.66406,0.0625 -0.84375,0.0625 -1.5664,0.0625 h -3.25 c -3.4961,0 -5.35938,0.30078 -6.80469,1.08203 -2.16797,1.14453 -3.13281,3.4336 -3.13281,7.22657 v 4.69921 c -0.35938,0.0586 -0.48047,0.0586 -0.66407,0.0586 -0.23828,0 -0.60156,0 -1.14453,-0.0586 h -1.08203 c -0.12109,0 -0.30078,-0.0625 -0.54297,-0.0625 v 3.4961 l 0.54297,-0.0625 1.14453,-0.0586 1.20313,-0.0625 h 0.54297 v 0.60157 l -0.0586,5 -0.0625,5.48047 -0.12109,7.40625 -0.11719,7.52734 v 0.60156"
         id="path155" />
    </g>
    <g
       clip-path="url(#clip21)"
       clip-rule="nonzero"
       id="g161"
       style="fill:#ffffff;fill-opacity:1">
      <path
         style="fill:#ffffff;fill-opacity:1;fill-rule:evenodd;stroke:none"
         d="m 642.83594,199.07422 c 0,10.71875 4.57422,15.65625 14.44922,15.65625 9.8164,0 14.57421,-4.9375 14.57421,-15.29688 0,-11.01953 -4.51562,-16.01562 -14.45312,-16.01562 -9.99609,0 -14.57031,4.9375 -14.57031,15.65625 z m 6.19922,-0.0586 c 0,-8.25 2.41015,-11.68359 8.25,-11.68359 5.78125,0 8.37109,3.55078 8.37109,11.38281 0,8.60938 -2.41016,12.10157 -8.25,12.10157 -5.90234,0 -8.37109,-3.4336 -8.37109,-11.80079"
         id="path159" />
    </g>
    <g
       clip-path="url(#clip22)"
       clip-rule="nonzero"
       id="g165"
       style="fill:#ffffff;fill-opacity:1">
      <path
         style="fill:#ffffff;fill-opacity:1;fill-rule:evenodd;stroke:none"
         d="m 679.42969,214.00781 h 6.19922 l -0.0586,-0.60156 -0.0586,-5.41797 -0.1211,-6.56641 0.0586,-5.66015 c 0,-3.55078 0.42187,-5.11719 1.5039,-6.32422 1.32813,-1.38281 3.13282,-2.04688 5.90235,-2.04688 2.34765,0 3.97656,0.48438 5.12109,1.44532 1.38281,1.20703 1.86719,2.76953 1.86719,6.44531 l -0.0625,5.41797 -0.12109,8.79297 v 0.66015 c 0,1.86719 0,2.35157 0.18359,3.85547 h 6.38281 c -0.36328,-1.5664 -0.42187,-2.16797 -0.42187,-4.39453 -0.0625,-2.83203 -0.1211,-7.04687 -0.1211,-10.29687 v -3.01172 c 0,-0.60157 0.0586,-1.14453 0.0586,-1.7461 0,-4.21484 -0.23828,-5.53906 -1.02344,-6.98437 -0.48047,-0.96485 -1.32422,-1.8086 -2.34766,-2.41016 -1.92578,-1.20312 -4.33593,-1.74609 -7.40625,-1.74609 -4.51562,0 -7.70703,1.20312 -9.875,3.67187 v -0.66015 l -0.0625,-1.75 0.0625,-0.60157 h -5.66015 c 0.0586,0.30079 0.0586,0.48438 0.0586,0.60157 0.0586,1.02734 0.12109,3.375 0.17969,7.04687 l 0.0625,7.34766 -0.0625,7.58594 c -0.0586,3.375 -0.1211,5.66015 -0.17969,6.74609 0,0.12109 0,0.35937 -0.0586,0.60156"
         id="path163" />
    </g>
    <g
       clip-path="url(#clip23)"
       clip-rule="nonzero"
       id="g169"
       style="fill:#ffffff;fill-opacity:1">
      <path
         style="fill:#ffffff;fill-opacity:1;fill-rule:evenodd;stroke:none"
         d="m 735.79297,209.13281 c 0,2.40625 0.0625,3.67188 0.24219,4.875 h 5.59765 c -0.35937,-1.86719 -0.53906,-3.85547 -0.72265,-6.98437 -0.11719,-2.89063 -0.23829,-8.61328 -0.23829,-14.51172 0,-7.83203 0.17969,-17.76563 0.30079,-20.89844 v -0.42187 h -6.14454 v 0.48046 c 0.0625,1.44922 0.1211,3.55469 0.1836,6.32422 0.0586,2.23047 0.12109,3.97657 0.12109,5.1211 v 0.66015 l -0.0625,0.72266 c -0.90234,-0.30078 -1.20312,-0.35938 -1.80469,-0.53906 -1.50781,-0.36328 -3.43359,-0.54297 -5.24218,-0.54297 -9.08985,0 -14.21094,5.90234 -14.21094,16.3164 0,10 4.15625,14.9375 12.58594,14.9375 5.17968,0 7.70703,-1.50781 9.39453,-5.53906 z m -0.72266,-20.65625 0.0625,0.66016 v 2.58984 c 0,3.13281 -0.0625,6.50391 -0.12109,9.51563 -0.0625,1.86718 -0.24219,3.49218 -0.66406,4.8164 -0.78125,2.76953 -3.4336,4.57813 -6.6836,4.57813 -5.11719,0 -7.58984,-3.67578 -7.58984,-11.32031 0,-8.07032 2.89453,-11.98438 8.85547,-11.98438 2.04687,0 3.79297,0.35938 6.14062,1.14453"
         id="path167" />
    </g>
    <g
       clip-path="url(#clip24)"
       clip-rule="nonzero"
       id="g173"
       style="fill:#ffffff;fill-opacity:1">
      <path
         style="fill:#ffffff;fill-opacity:1;fill-rule:nonzero;stroke:none"
         d="m 748.53906,213.10547 c 4.09375,1.08203 7.64844,1.5664 11.19922,1.5664 7.52734,0 12.28516,-3.67578 12.28516,-9.45703 0,-2.64843 -1.08594,-5.05859 -3.07032,-6.4414 -1.6875,-1.20313 -3.1914,-1.8086 -6.98437,-2.83203 -3.49609,-0.90235 -4.21484,-1.14454 -5.24219,-1.6836 -1.26172,-0.66406 -1.98437,-1.74609 -1.98437,-3.07422 0,-2.46875 2.16406,-3.91406 5.83984,-3.91406 2.52734,0 5.48047,0.66406 9.09375,2.05078 v -5.30078 c -0.84375,0 -1.02344,0 -2.28906,-0.12109 -3.4336,-0.35938 -5.72266,-0.48047 -7.46485,-0.48047 -6.74609,0 -11.02343,3.37109 -11.02343,8.60937 0,2.41016 1.02343,4.57813 2.83203,5.90235 1.38281,1.02343 2.76953,1.625 5.78125,2.46875 1.86719,0.54297 3.1289,0.90234 3.67187,1.08203 0.90625,0.24219 1.6875,0.54297 2.41016,0.96484 0.54297,0.24219 0.96094,0.54297 1.32422,0.96485 0.66015,0.72265 1.02344,1.68359 1.02344,2.71093 0,2.82813 -2.53125,4.57422 -6.6836,4.57422 -3.3125,0 -6.5664,-0.84375 -10.71875,-2.70703 v 5.11719"
         id="path171" />
    </g>
  </g>
</svg>
